<?xml version="1.0" encoding="utf-8" standalone="no"?>
<!DOCTYPE svg PUBLIC "-//W3C//DTD SVG 1.1//EN"
  "http://www.w3.org/Graphics/SVG/1.1/DTD/svg11.dtd">
<!-- Created with matplotlib (https://matplotlib.org/) -->
<svg height="288pt" version="1.1" viewBox="0 0 432 288" width="432pt" xmlns="http://www.w3.org/2000/svg" xmlns:xlink="http://www.w3.org/1999/xlink">
 <defs>
  <style type="text/css">
*{stroke-linecap:butt;stroke-linejoin:round;}
  </style>
 </defs>
 <g id="figure_1">
  <g id="patch_1">
   <path d="M 0 288 
L 432 288 
L 432 0 
L 0 0 
z
" style="fill:#ffffff;"/>
  </g>
  <g id="axes_1">
   <g id="patch_2">
    <path d="M 54 252 
L 388.8 252 
L 388.8 34.56 
L 54 34.56 
z
" style="fill:#ffffff;"/>
   </g>
   <g id="PathCollection_1">
    <defs>
     <path d="M 0 3 
C 0.795609 3 1.55874 2.683901 2.12132 2.12132 
C 2.683901 1.55874 3 0.795609 3 0 
C 3 -0.795609 2.683901 -1.55874 2.12132 -2.12132 
C 1.55874 -2.683901 0.795609 -3 0 -3 
C -0.795609 -3 -1.55874 -2.683901 -2.12132 -2.12132 
C -2.683901 -1.55874 -3 -0.795609 -3 0 
C -3 0.795609 -2.683901 1.55874 -2.12132 2.12132 
C -1.55874 2.683901 -0.795609 3 0 3 
z
" id="C0_0_eccca4e85d"/>
    </defs>
    <g clip-path="url(#pd409f29af3)">
     <use style="fill:#440154;stroke:#440154;" x="281.349751" xlink:href="#C0_0_eccca4e85d" y="128.446876"/>
    </g>
    <g clip-path="url(#pd409f29af3)">
     <use style="fill:#440154;stroke:#440154;" x="194.818104" xlink:href="#C0_0_eccca4e85d" y="129.484827"/>
    </g>
    <g clip-path="url(#pd409f29af3)">
     <use style="fill:#440154;stroke:#440154;" x="229.545121" xlink:href="#C0_0_eccca4e85d" y="181.892234"/>
    </g>
    <g clip-path="url(#pd409f29af3)">
     <use style="fill:#440154;stroke:#440154;" x="228.032918" xlink:href="#C0_0_eccca4e85d" y="122.506296"/>
    </g>
    <g clip-path="url(#pd409f29af3)">
     <use style="fill:#440154;stroke:#440154;" x="150.937463" xlink:href="#C0_0_eccca4e85d" y="107.767065"/>
    </g>
    <g clip-path="url(#pd409f29af3)">
     <use style="fill:#440154;stroke:#440154;" x="190.485471" xlink:href="#C0_0_eccca4e85d" y="119.796478"/>
    </g>
    <g clip-path="url(#pd409f29af3)">
     <use style="fill:#440154;stroke:#440154;" x="307.409498" xlink:href="#C0_0_eccca4e85d" y="199.068553"/>
    </g>
    <g clip-path="url(#pd409f29af3)">
     <use style="fill:#440154;stroke:#440154;" x="148.398362" xlink:href="#C0_0_eccca4e85d" y="158.542017"/>
    </g>
    <g clip-path="url(#pd409f29af3)">
     <use style="fill:#440154;stroke:#440154;" x="229.794091" xlink:href="#C0_0_eccca4e85d" y="89.810984"/>
    </g>
    <g clip-path="url(#pd409f29af3)">
     <use style="fill:#440154;stroke:#440154;" x="128.163414" xlink:href="#C0_0_eccca4e85d" y="139.028102"/>
    </g>
    <g clip-path="url(#pd409f29af3)">
     <use style="fill:#440154;stroke:#440154;" x="192.892826" xlink:href="#C0_0_eccca4e85d" y="105.820498"/>
    </g>
    <g clip-path="url(#pd409f29af3)">
     <use style="fill:#440154;stroke:#440154;" x="97.264575" xlink:href="#C0_0_eccca4e85d" y="175.002277"/>
    </g>
    <g clip-path="url(#pd409f29af3)">
     <use style="fill:#440154;stroke:#440154;" x="224.600366" xlink:href="#C0_0_eccca4e85d" y="144.831183"/>
    </g>
    <g clip-path="url(#pd409f29af3)">
     <use style="fill:#440154;stroke:#440154;" x="239.379527" xlink:href="#C0_0_eccca4e85d" y="151.824262"/>
    </g>
    <g clip-path="url(#pd409f29af3)">
     <use style="fill:#440154;stroke:#440154;" x="210.377783" xlink:href="#C0_0_eccca4e85d" y="169.471371"/>
    </g>
    <g clip-path="url(#pd409f29af3)">
     <use style="fill:#440154;stroke:#440154;" x="176.124508" xlink:href="#C0_0_eccca4e85d" y="183.637565"/>
    </g>
    <g clip-path="url(#pd409f29af3)">
     <use style="fill:#440154;stroke:#440154;" x="163.220075" xlink:href="#C0_0_eccca4e85d" y="94.742695"/>
    </g>
    <g clip-path="url(#pd409f29af3)">
     <use style="fill:#440154;stroke:#440154;" x="177.183985" xlink:href="#C0_0_eccca4e85d" y="122.288586"/>
    </g>
    <g clip-path="url(#pd409f29af3)">
     <use style="fill:#440154;stroke:#440154;" x="164.094337" xlink:href="#C0_0_eccca4e85d" y="150.090848"/>
    </g>
    <g clip-path="url(#pd409f29af3)">
     <use style="fill:#440154;stroke:#440154;" x="166.335212" xlink:href="#C0_0_eccca4e85d" y="152.497411"/>
    </g>
    <g clip-path="url(#pd409f29af3)">
     <use style="fill:#440154;stroke:#440154;" x="118.664144" xlink:href="#C0_0_eccca4e85d" y="44.443636"/>
    </g>
    <g clip-path="url(#pd409f29af3)">
     <use style="fill:#440154;stroke:#440154;" x="185.118276" xlink:href="#C0_0_eccca4e85d" y="187.14573"/>
    </g>
    <g clip-path="url(#pd409f29af3)">
     <use style="fill:#440154;stroke:#440154;" x="175.018709" xlink:href="#C0_0_eccca4e85d" y="141.281401"/>
    </g>
    <g clip-path="url(#pd409f29af3)">
     <use style="fill:#440154;stroke:#440154;" x="214.647261" xlink:href="#C0_0_eccca4e85d" y="101.864777"/>
    </g>
    <g clip-path="url(#pd409f29af3)">
     <use style="fill:#440154;stroke:#440154;" x="154.75438" xlink:href="#C0_0_eccca4e85d" y="143.659237"/>
    </g>
    <g clip-path="url(#pd409f29af3)">
     <use style="fill:#440154;stroke:#440154;" x="109.231697" xlink:href="#C0_0_eccca4e85d" y="178.056294"/>
    </g>
    <g clip-path="url(#pd409f29af3)">
     <use style="fill:#440154;stroke:#440154;" x="215.867419" xlink:href="#C0_0_eccca4e85d" y="172.519227"/>
    </g>
    <g clip-path="url(#pd409f29af3)">
     <use style="fill:#440154;stroke:#440154;" x="244.659847" xlink:href="#C0_0_eccca4e85d" y="188.2571"/>
    </g>
    <g clip-path="url(#pd409f29af3)">
     <use style="fill:#440154;stroke:#440154;" x="161.879286" xlink:href="#C0_0_eccca4e85d" y="149.93332"/>
    </g>
    <g clip-path="url(#pd409f29af3)">
     <use style="fill:#440154;stroke:#440154;" x="279.332696" xlink:href="#C0_0_eccca4e85d" y="177.633949"/>
    </g>
    <g clip-path="url(#pd409f29af3)">
     <use style="fill:#440154;stroke:#440154;" x="182.061259" xlink:href="#C0_0_eccca4e85d" y="176.81136"/>
    </g>
    <g clip-path="url(#pd409f29af3)">
     <use style="fill:#440154;stroke:#440154;" x="190.053721" xlink:href="#C0_0_eccca4e85d" y="187.253701"/>
    </g>
    <g clip-path="url(#pd409f29af3)">
     <use style="fill:#440154;stroke:#440154;" x="217.241275" xlink:href="#C0_0_eccca4e85d" y="113.584931"/>
    </g>
    <g clip-path="url(#pd409f29af3)">
     <use style="fill:#440154;stroke:#440154;" x="220.289319" xlink:href="#C0_0_eccca4e85d" y="237.509335"/>
    </g>
    <g clip-path="url(#pd409f29af3)">
     <use style="fill:#440154;stroke:#440154;" x="198.731631" xlink:href="#C0_0_eccca4e85d" y="196.150565"/>
    </g>
    <g clip-path="url(#pd409f29af3)">
     <use style="fill:#440154;stroke:#440154;" x="164.281082" xlink:href="#C0_0_eccca4e85d" y="178.542016"/>
    </g>
    <g clip-path="url(#pd409f29af3)">
     <use style="fill:#440154;stroke:#440154;" x="174.429691" xlink:href="#C0_0_eccca4e85d" y="135.018698"/>
    </g>
    <g clip-path="url(#pd409f29af3)">
     <use style="fill:#440154;stroke:#440154;" x="118.293772" xlink:href="#C0_0_eccca4e85d" y="167.429275"/>
    </g>
    <g clip-path="url(#pd409f29af3)">
     <use style="fill:#440154;stroke:#440154;" x="75.299675" xlink:href="#C0_0_eccca4e85d" y="198.470989"/>
    </g>
    <g clip-path="url(#pd409f29af3)">
     <use style="fill:#440154;stroke:#440154;" x="229.774702" xlink:href="#C0_0_eccca4e85d" y="160.926072"/>
    </g>
    <g clip-path="url(#pd409f29af3)">
     <use style="fill:#440154;stroke:#440154;" x="200.124028" xlink:href="#C0_0_eccca4e85d" y="209.749056"/>
    </g>
    <g clip-path="url(#pd409f29af3)">
     <use style="fill:#440154;stroke:#440154;" x="172.067616" xlink:href="#C0_0_eccca4e85d" y="153.772309"/>
    </g>
    <g clip-path="url(#pd409f29af3)">
     <use style="fill:#440154;stroke:#440154;" x="142.479999" xlink:href="#C0_0_eccca4e85d" y="152.878853"/>
    </g>
    <g clip-path="url(#pd409f29af3)">
     <use style="fill:#440154;stroke:#440154;" x="194.063314" xlink:href="#C0_0_eccca4e85d" y="124.203328"/>
    </g>
    <g clip-path="url(#pd409f29af3)">
     <use style="fill:#440154;stroke:#440154;" x="146.865205" xlink:href="#C0_0_eccca4e85d" y="149.679436"/>
    </g>
    <g clip-path="url(#pd409f29af3)">
     <use style="fill:#440154;stroke:#440154;" x="127.541901" xlink:href="#C0_0_eccca4e85d" y="203.4002"/>
    </g>
    <g clip-path="url(#pd409f29af3)">
     <use style="fill:#440154;stroke:#440154;" x="196.395054" xlink:href="#C0_0_eccca4e85d" y="98.04599"/>
    </g>
    <g clip-path="url(#pd409f29af3)">
     <use style="fill:#440154;stroke:#440154;" x="175.675192" xlink:href="#C0_0_eccca4e85d" y="169.427341"/>
    </g>
    <g clip-path="url(#pd409f29af3)">
     <use style="fill:#440154;stroke:#440154;" x="227.21476" xlink:href="#C0_0_eccca4e85d" y="112.525218"/>
    </g>
    <g clip-path="url(#pd409f29af3)">
     <use style="fill:#440154;stroke:#440154;" x="113.870552" xlink:href="#C0_0_eccca4e85d" y="169.517972"/>
    </g>
    <g clip-path="url(#pd409f29af3)">
     <use style="fill:#440154;stroke:#440154;" x="203.246306" xlink:href="#C0_0_eccca4e85d" y="129.3131"/>
    </g>
    <g clip-path="url(#pd409f29af3)">
     <use style="fill:#440154;stroke:#440154;" x="178.335127" xlink:href="#C0_0_eccca4e85d" y="143.069281"/>
    </g>
    <g clip-path="url(#pd409f29af3)">
     <use style="fill:#440154;stroke:#440154;" x="227.947342" xlink:href="#C0_0_eccca4e85d" y="148.141981"/>
    </g>
    <g clip-path="url(#pd409f29af3)">
     <use style="fill:#440154;stroke:#440154;" x="219.436598" xlink:href="#C0_0_eccca4e85d" y="159.395752"/>
    </g>
    <g clip-path="url(#pd409f29af3)">
     <use style="fill:#440154;stroke:#440154;" x="148.36849" xlink:href="#C0_0_eccca4e85d" y="159.361263"/>
    </g>
    <g clip-path="url(#pd409f29af3)">
     <use style="fill:#440154;stroke:#440154;" x="183.633775" xlink:href="#C0_0_eccca4e85d" y="110.715885"/>
    </g>
    <g clip-path="url(#pd409f29af3)">
     <use style="fill:#440154;stroke:#440154;" x="215.202204" xlink:href="#C0_0_eccca4e85d" y="132.536952"/>
    </g>
    <g clip-path="url(#pd409f29af3)">
     <use style="fill:#440154;stroke:#440154;" x="202.683103" xlink:href="#C0_0_eccca4e85d" y="179.341772"/>
    </g>
    <g clip-path="url(#pd409f29af3)">
     <use style="fill:#440154;stroke:#440154;" x="185.76283" xlink:href="#C0_0_eccca4e85d" y="133.497765"/>
    </g>
    <g clip-path="url(#pd409f29af3)">
     <use style="fill:#440154;stroke:#440154;" x="148.132849" xlink:href="#C0_0_eccca4e85d" y="166.923148"/>
    </g>
    <g clip-path="url(#pd409f29af3)">
     <use style="fill:#440154;stroke:#440154;" x="216.495123" xlink:href="#C0_0_eccca4e85d" y="181.41689"/>
    </g>
    <g clip-path="url(#pd409f29af3)">
     <use style="fill:#440154;stroke:#440154;" x="149.249312" xlink:href="#C0_0_eccca4e85d" y="119.662877"/>
    </g>
    <g clip-path="url(#pd409f29af3)">
     <use style="fill:#440154;stroke:#440154;" x="200.738445" xlink:href="#C0_0_eccca4e85d" y="158.573675"/>
    </g>
    <g clip-path="url(#pd409f29af3)">
     <use style="fill:#440154;stroke:#440154;" x="220.524381" xlink:href="#C0_0_eccca4e85d" y="197.051661"/>
    </g>
    <g clip-path="url(#pd409f29af3)">
     <use style="fill:#440154;stroke:#440154;" x="189.407518" xlink:href="#C0_0_eccca4e85d" y="177.609896"/>
    </g>
    <g clip-path="url(#pd409f29af3)">
     <use style="fill:#440154;stroke:#440154;" x="144.328321" xlink:href="#C0_0_eccca4e85d" y="118.477654"/>
    </g>
    <g clip-path="url(#pd409f29af3)">
     <use style="fill:#440154;stroke:#440154;" x="212.962409" xlink:href="#C0_0_eccca4e85d" y="159.064563"/>
    </g>
    <g clip-path="url(#pd409f29af3)">
     <use style="fill:#440154;stroke:#440154;" x="141.632777" xlink:href="#C0_0_eccca4e85d" y="197.251283"/>
    </g>
    <g clip-path="url(#pd409f29af3)">
     <use style="fill:#440154;stroke:#440154;" x="164.941128" xlink:href="#C0_0_eccca4e85d" y="139.545271"/>
    </g>
    <g clip-path="url(#pd409f29af3)">
     <use style="fill:#440154;stroke:#440154;" x="149.303401" xlink:href="#C0_0_eccca4e85d" y="213.000019"/>
    </g>
    <g clip-path="url(#pd409f29af3)">
     <use style="fill:#440154;stroke:#440154;" x="214.455086" xlink:href="#C0_0_eccca4e85d" y="124.018524"/>
    </g>
    <g clip-path="url(#pd409f29af3)">
     <use style="fill:#440154;stroke:#440154;" x="242.597681" xlink:href="#C0_0_eccca4e85d" y="190.458317"/>
    </g>
    <g clip-path="url(#pd409f29af3)">
     <use style="fill:#440154;stroke:#440154;" x="176.738747" xlink:href="#C0_0_eccca4e85d" y="163.886658"/>
    </g>
    <g clip-path="url(#pd409f29af3)">
     <use style="fill:#440154;stroke:#440154;" x="268.364769" xlink:href="#C0_0_eccca4e85d" y="187.320091"/>
    </g>
    <g clip-path="url(#pd409f29af3)">
     <use style="fill:#440154;stroke:#440154;" x="239.651395" xlink:href="#C0_0_eccca4e85d" y="157.576391"/>
    </g>
    <g clip-path="url(#pd409f29af3)">
     <use style="fill:#440154;stroke:#440154;" x="157.506753" xlink:href="#C0_0_eccca4e85d" y="231.08104"/>
    </g>
    <g clip-path="url(#pd409f29af3)">
     <use style="fill:#440154;stroke:#440154;" x="132.64776" xlink:href="#C0_0_eccca4e85d" y="195.921945"/>
    </g>
    <g clip-path="url(#pd409f29af3)">
     <use style="fill:#440154;stroke:#440154;" x="217.50745" xlink:href="#C0_0_eccca4e85d" y="186.906992"/>
    </g>
    <g clip-path="url(#pd409f29af3)">
     <use style="fill:#440154;stroke:#440154;" x="210.011065" xlink:href="#C0_0_eccca4e85d" y="242.116364"/>
    </g>
    <g clip-path="url(#pd409f29af3)">
     <use style="fill:#440154;stroke:#440154;" x="249.593357" xlink:href="#C0_0_eccca4e85d" y="177.561026"/>
    </g>
    <g clip-path="url(#pd409f29af3)">
     <use style="fill:#440154;stroke:#440154;" x="198.855904" xlink:href="#C0_0_eccca4e85d" y="187.084635"/>
    </g>
    <g clip-path="url(#pd409f29af3)">
     <use style="fill:#440154;stroke:#440154;" x="177.919754" xlink:href="#C0_0_eccca4e85d" y="133.425049"/>
    </g>
    <g clip-path="url(#pd409f29af3)">
     <use style="fill:#440154;stroke:#440154;" x="214.000631" xlink:href="#C0_0_eccca4e85d" y="176.316506"/>
    </g>
    <g clip-path="url(#pd409f29af3)">
     <use style="fill:#440154;stroke:#440154;" x="184.802332" xlink:href="#C0_0_eccca4e85d" y="145.062258"/>
    </g>
    <g clip-path="url(#pd409f29af3)">
     <use style="fill:#440154;stroke:#440154;" x="226.560679" xlink:href="#C0_0_eccca4e85d" y="184.938622"/>
    </g>
    <g clip-path="url(#pd409f29af3)">
     <use style="fill:#440154;stroke:#440154;" x="228.285312" xlink:href="#C0_0_eccca4e85d" y="179.60657"/>
    </g>
    <g clip-path="url(#pd409f29af3)">
     <use style="fill:#440154;stroke:#440154;" x="231.855101" xlink:href="#C0_0_eccca4e85d" y="156.59198"/>
    </g>
    <g clip-path="url(#pd409f29af3)">
     <use style="fill:#440154;stroke:#440154;" x="203.874937" xlink:href="#C0_0_eccca4e85d" y="161.221346"/>
    </g>
    <g clip-path="url(#pd409f29af3)">
     <use style="fill:#440154;stroke:#440154;" x="236.032459" xlink:href="#C0_0_eccca4e85d" y="166.756542"/>
    </g>
    <g clip-path="url(#pd409f29af3)">
     <use style="fill:#440154;stroke:#440154;" x="134.560625" xlink:href="#C0_0_eccca4e85d" y="138.016522"/>
    </g>
    <g clip-path="url(#pd409f29af3)">
     <use style="fill:#440154;stroke:#440154;" x="141.465709" xlink:href="#C0_0_eccca4e85d" y="156.113596"/>
    </g>
    <g clip-path="url(#pd409f29af3)">
     <use style="fill:#440154;stroke:#440154;" x="177.584033" xlink:href="#C0_0_eccca4e85d" y="175.194854"/>
    </g>
    <g clip-path="url(#pd409f29af3)">
     <use style="fill:#440154;stroke:#440154;" x="165.473134" xlink:href="#C0_0_eccca4e85d" y="166.954322"/>
    </g>
    <g clip-path="url(#pd409f29af3)">
     <use style="fill:#440154;stroke:#440154;" x="184.53907" xlink:href="#C0_0_eccca4e85d" y="192.444436"/>
    </g>
    <g clip-path="url(#pd409f29af3)">
     <use style="fill:#440154;stroke:#440154;" x="152.187477" xlink:href="#C0_0_eccca4e85d" y="165.561654"/>
    </g>
    <g clip-path="url(#pd409f29af3)">
     <use style="fill:#440154;stroke:#440154;" x="268.761119" xlink:href="#C0_0_eccca4e85d" y="195.482506"/>
    </g>
    <g clip-path="url(#pd409f29af3)">
     <use style="fill:#440154;stroke:#440154;" x="306.652302" xlink:href="#C0_0_eccca4e85d" y="166.775943"/>
    </g>
    <g clip-path="url(#pd409f29af3)">
     <use style="fill:#440154;stroke:#440154;" x="159.440538" xlink:href="#C0_0_eccca4e85d" y="168.168711"/>
    </g>
    <g clip-path="url(#pd409f29af3)">
     <use style="fill:#440154;stroke:#440154;" x="180.854389" xlink:href="#C0_0_eccca4e85d" y="166.98571"/>
    </g>
    <g clip-path="url(#pd409f29af3)">
     <use style="fill:#440154;stroke:#440154;" x="168.805701" xlink:href="#C0_0_eccca4e85d" y="102.56425"/>
    </g>
    <g clip-path="url(#pd409f29af3)">
     <use style="fill:#440154;stroke:#440154;" x="104.687923" xlink:href="#C0_0_eccca4e85d" y="48.038428"/>
    </g>
    <g clip-path="url(#pd409f29af3)">
     <use style="fill:#440154;stroke:#440154;" x="171.948032" xlink:href="#C0_0_eccca4e85d" y="110.598995"/>
    </g>
    <g clip-path="url(#pd409f29af3)">
     <use style="fill:#440154;stroke:#440154;" x="203.677231" xlink:href="#C0_0_eccca4e85d" y="166.769081"/>
    </g>
    <g clip-path="url(#pd409f29af3)">
     <use style="fill:#fde725;stroke:#fde725;" x="119.841676" xlink:href="#C0_0_eccca4e85d" y="175.09178"/>
    </g>
    <g clip-path="url(#pd409f29af3)">
     <use style="fill:#fde725;stroke:#fde725;" x="127.670018" xlink:href="#C0_0_eccca4e85d" y="161.718337"/>
    </g>
    <g clip-path="url(#pd409f29af3)">
     <use style="fill:#fde725;stroke:#fde725;" x="128.910878" xlink:href="#C0_0_eccca4e85d" y="216.899267"/>
    </g>
    <g clip-path="url(#pd409f29af3)">
     <use style="fill:#fde725;stroke:#fde725;" x="90.427233" xlink:href="#C0_0_eccca4e85d" y="185.34747"/>
    </g>
    <g clip-path="url(#pd409f29af3)">
     <use style="fill:#fde725;stroke:#fde725;" x="87.20556" xlink:href="#C0_0_eccca4e85d" y="163.984026"/>
    </g>
    <g clip-path="url(#pd409f29af3)">
     <use style="fill:#fde725;stroke:#fde725;" x="123.708896" xlink:href="#C0_0_eccca4e85d" y="220.558208"/>
    </g>
    <g clip-path="url(#pd409f29af3)">
     <use style="fill:#fde725;stroke:#fde725;" x="70.88582" xlink:href="#C0_0_eccca4e85d" y="194.474504"/>
    </g>
    <g clip-path="url(#pd409f29af3)">
     <use style="fill:#fde725;stroke:#fde725;" x="234.137653" xlink:href="#C0_0_eccca4e85d" y="225.144854"/>
    </g>
    <g clip-path="url(#pd409f29af3)">
     <use style="fill:#fde725;stroke:#fde725;" x="181.71869" xlink:href="#C0_0_eccca4e85d" y="164.696446"/>
    </g>
    <g clip-path="url(#pd409f29af3)">
     <use style="fill:#fde725;stroke:#fde725;" x="164.678414" xlink:href="#C0_0_eccca4e85d" y="203.510309"/>
    </g>
    <g clip-path="url(#pd409f29af3)">
     <use style="fill:#fde725;stroke:#fde725;" x="90.505188" xlink:href="#C0_0_eccca4e85d" y="158.451748"/>
    </g>
    <g clip-path="url(#pd409f29af3)">
     <use style="fill:#fde725;stroke:#fde725;" x="135.262435" xlink:href="#C0_0_eccca4e85d" y="131.502425"/>
    </g>
    <g clip-path="url(#pd409f29af3)">
     <use style="fill:#fde725;stroke:#fde725;" x="87.640216" xlink:href="#C0_0_eccca4e85d" y="112.676263"/>
    </g>
    <g clip-path="url(#pd409f29af3)">
     <use style="fill:#fde725;stroke:#fde725;" x="120.333417" xlink:href="#C0_0_eccca4e85d" y="169.071331"/>
    </g>
    <g clip-path="url(#pd409f29af3)">
     <use style="fill:#fde725;stroke:#fde725;" x="164.571912" xlink:href="#C0_0_eccca4e85d" y="231.251604"/>
    </g>
    <g clip-path="url(#pd409f29af3)">
     <use style="fill:#fde725;stroke:#fde725;" x="82.330407" xlink:href="#C0_0_eccca4e85d" y="182.313651"/>
    </g>
    <g clip-path="url(#pd409f29af3)">
     <use style="fill:#fde725;stroke:#fde725;" x="118.227111" xlink:href="#C0_0_eccca4e85d" y="173.686899"/>
    </g>
    <g clip-path="url(#pd409f29af3)">
     <use style="fill:#fde725;stroke:#fde725;" x="148.079669" xlink:href="#C0_0_eccca4e85d" y="145.554596"/>
    </g>
    <g clip-path="url(#pd409f29af3)">
     <use style="fill:#fde725;stroke:#fde725;" x="82.499812" xlink:href="#C0_0_eccca4e85d" y="181.931051"/>
    </g>
    <g clip-path="url(#pd409f29af3)">
     <use style="fill:#fde725;stroke:#fde725;" x="121.52606" xlink:href="#C0_0_eccca4e85d" y="189.496457"/>
    </g>
    <g clip-path="url(#pd409f29af3)">
     <use style="fill:#fde725;stroke:#fde725;" x="69.218182" xlink:href="#C0_0_eccca4e85d" y="150.736125"/>
    </g>
    <g clip-path="url(#pd409f29af3)">
     <use style="fill:#fde725;stroke:#fde725;" x="100.232344" xlink:href="#C0_0_eccca4e85d" y="181.988401"/>
    </g>
    <g clip-path="url(#pd409f29af3)">
     <use style="fill:#fde725;stroke:#fde725;" x="97.054766" xlink:href="#C0_0_eccca4e85d" y="175.793107"/>
    </g>
    <g clip-path="url(#pd409f29af3)">
     <use style="fill:#fde725;stroke:#fde725;" x="130.735665" xlink:href="#C0_0_eccca4e85d" y="166.426303"/>
    </g>
    <g clip-path="url(#pd409f29af3)">
     <use style="fill:#fde725;stroke:#fde725;" x="101.048517" xlink:href="#C0_0_eccca4e85d" y="210.838523"/>
    </g>
    <g clip-path="url(#pd409f29af3)">
     <use style="fill:#fde725;stroke:#fde725;" x="140.874511" xlink:href="#C0_0_eccca4e85d" y="195.981623"/>
    </g>
    <g clip-path="url(#pd409f29af3)">
     <use style="fill:#fde725;stroke:#fde725;" x="131.237547" xlink:href="#C0_0_eccca4e85d" y="203.016932"/>
    </g>
    <g clip-path="url(#pd409f29af3)">
     <use style="fill:#fde725;stroke:#fde725;" x="184.523527" xlink:href="#C0_0_eccca4e85d" y="181.124691"/>
    </g>
    <g clip-path="url(#pd409f29af3)">
     <use style="fill:#fde725;stroke:#fde725;" x="373.581818" xlink:href="#C0_0_eccca4e85d" y="175.852012"/>
    </g>
    <g clip-path="url(#pd409f29af3)">
     <use style="fill:#fde725;stroke:#fde725;" x="181.32612" xlink:href="#C0_0_eccca4e85d" y="171.562795"/>
    </g>
    <g clip-path="url(#pd409f29af3)">
     <use style="fill:#fde725;stroke:#fde725;" x="142.634888" xlink:href="#C0_0_eccca4e85d" y="156.401162"/>
    </g>
    <g clip-path="url(#pd409f29af3)">
     <use style="fill:#fde725;stroke:#fde725;" x="213.82489" xlink:href="#C0_0_eccca4e85d" y="187.365735"/>
    </g>
    <g clip-path="url(#pd409f29af3)">
     <use style="fill:#fde725;stroke:#fde725;" x="89.148326" xlink:href="#C0_0_eccca4e85d" y="208.644497"/>
    </g>
   </g>
   <g id="matplotlib.axis_1">
    <g id="xtick_1">
     <g id="line2d_1">
      <defs>
       <path d="M 0 0 
L 0 3.5 
" id="m2dfb009d5b" style="stroke:#000000;stroke-width:0.8;"/>
      </defs>
      <g>
       <use style="stroke:#000000;stroke-width:0.8;" x="56.246939" xlink:href="#m2dfb009d5b" y="252"/>
      </g>
     </g>
     <g id="text_1">
      <!-- −0.06 -->
      <defs>
       <path d="M 10.59375 35.5 
L 73.1875 35.5 
L 73.1875 27.203125 
L 10.59375 27.203125 
z
" id="DejaVuSans-8722"/>
       <path d="M 31.78125 66.40625 
Q 24.171875 66.40625 20.328125 58.90625 
Q 16.5 51.421875 16.5 36.375 
Q 16.5 21.390625 20.328125 13.890625 
Q 24.171875 6.390625 31.78125 6.390625 
Q 39.453125 6.390625 43.28125 13.890625 
Q 47.125 21.390625 47.125 36.375 
Q 47.125 51.421875 43.28125 58.90625 
Q 39.453125 66.40625 31.78125 66.40625 
z
M 31.78125 74.21875 
Q 44.046875 74.21875 50.515625 64.515625 
Q 56.984375 54.828125 56.984375 36.375 
Q 56.984375 17.96875 50.515625 8.265625 
Q 44.046875 -1.421875 31.78125 -1.421875 
Q 19.53125 -1.421875 13.0625 8.265625 
Q 6.59375 17.96875 6.59375 36.375 
Q 6.59375 54.828125 13.0625 64.515625 
Q 19.53125 74.21875 31.78125 74.21875 
z
" id="DejaVuSans-48"/>
       <path d="M 10.6875 12.40625 
L 21 12.40625 
L 21 0 
L 10.6875 0 
z
" id="DejaVuSans-46"/>
       <path d="M 33.015625 40.375 
Q 26.375 40.375 22.484375 35.828125 
Q 18.609375 31.296875 18.609375 23.390625 
Q 18.609375 15.53125 22.484375 10.953125 
Q 26.375 6.390625 33.015625 6.390625 
Q 39.65625 6.390625 43.53125 10.953125 
Q 47.40625 15.53125 47.40625 23.390625 
Q 47.40625 31.296875 43.53125 35.828125 
Q 39.65625 40.375 33.015625 40.375 
z
M 52.59375 71.296875 
L 52.59375 62.3125 
Q 48.875 64.0625 45.09375 64.984375 
Q 41.3125 65.921875 37.59375 65.921875 
Q 27.828125 65.921875 22.671875 59.328125 
Q 17.53125 52.734375 16.796875 39.40625 
Q 19.671875 43.65625 24.015625 45.921875 
Q 28.375 48.1875 33.59375 48.1875 
Q 44.578125 48.1875 50.953125 41.515625 
Q 57.328125 34.859375 57.328125 23.390625 
Q 57.328125 12.15625 50.6875 5.359375 
Q 44.046875 -1.421875 33.015625 -1.421875 
Q 20.359375 -1.421875 13.671875 8.265625 
Q 6.984375 17.96875 6.984375 36.375 
Q 6.984375 53.65625 15.1875 63.9375 
Q 23.390625 74.21875 37.203125 74.21875 
Q 40.921875 74.21875 44.703125 73.484375 
Q 48.484375 72.75 52.59375 71.296875 
z
" id="DejaVuSans-54"/>
      </defs>
      <g transform="translate(40.924283 266.598437)scale(0.1 -0.1)">
       <use xlink:href="#DejaVuSans-8722"/>
       <use x="83.789062" xlink:href="#DejaVuSans-48"/>
       <use x="147.412109" xlink:href="#DejaVuSans-46"/>
       <use x="179.199219" xlink:href="#DejaVuSans-48"/>
       <use x="242.822266" xlink:href="#DejaVuSans-54"/>
      </g>
     </g>
    </g>
    <g id="xtick_2">
     <g id="line2d_2">
      <g>
       <use style="stroke:#000000;stroke-width:0.8;" x="96.066996" xlink:href="#m2dfb009d5b" y="252"/>
      </g>
     </g>
     <g id="text_2">
      <!-- −0.04 -->
      <defs>
       <path d="M 37.796875 64.3125 
L 12.890625 25.390625 
L 37.796875 25.390625 
z
M 35.203125 72.90625 
L 47.609375 72.90625 
L 47.609375 25.390625 
L 58.015625 25.390625 
L 58.015625 17.1875 
L 47.609375 17.1875 
L 47.609375 0 
L 37.796875 0 
L 37.796875 17.1875 
L 4.890625 17.1875 
L 4.890625 26.703125 
z
" id="DejaVuSans-52"/>
      </defs>
      <g transform="translate(80.74434 266.598437)scale(0.1 -0.1)">
       <use xlink:href="#DejaVuSans-8722"/>
       <use x="83.789062" xlink:href="#DejaVuSans-48"/>
       <use x="147.412109" xlink:href="#DejaVuSans-46"/>
       <use x="179.199219" xlink:href="#DejaVuSans-48"/>
       <use x="242.822266" xlink:href="#DejaVuSans-52"/>
      </g>
     </g>
    </g>
    <g id="xtick_3">
     <g id="line2d_3">
      <g>
       <use style="stroke:#000000;stroke-width:0.8;" x="135.887053" xlink:href="#m2dfb009d5b" y="252"/>
      </g>
     </g>
     <g id="text_3">
      <!-- −0.02 -->
      <defs>
       <path d="M 19.1875 8.296875 
L 53.609375 8.296875 
L 53.609375 0 
L 7.328125 0 
L 7.328125 8.296875 
Q 12.9375 14.109375 22.625 23.890625 
Q 32.328125 33.6875 34.8125 36.53125 
Q 39.546875 41.84375 41.421875 45.53125 
Q 43.3125 49.21875 43.3125 52.78125 
Q 43.3125 58.59375 39.234375 62.25 
Q 35.15625 65.921875 28.609375 65.921875 
Q 23.96875 65.921875 18.8125 64.3125 
Q 13.671875 62.703125 7.8125 59.421875 
L 7.8125 69.390625 
Q 13.765625 71.78125 18.9375 73 
Q 24.125 74.21875 28.421875 74.21875 
Q 39.75 74.21875 46.484375 68.546875 
Q 53.21875 62.890625 53.21875 53.421875 
Q 53.21875 48.921875 51.53125 44.890625 
Q 49.859375 40.875 45.40625 35.40625 
Q 44.1875 33.984375 37.640625 27.21875 
Q 31.109375 20.453125 19.1875 8.296875 
z
" id="DejaVuSans-50"/>
      </defs>
      <g transform="translate(120.564396 266.598437)scale(0.1 -0.1)">
       <use xlink:href="#DejaVuSans-8722"/>
       <use x="83.789062" xlink:href="#DejaVuSans-48"/>
       <use x="147.412109" xlink:href="#DejaVuSans-46"/>
       <use x="179.199219" xlink:href="#DejaVuSans-48"/>
       <use x="242.822266" xlink:href="#DejaVuSans-50"/>
      </g>
     </g>
    </g>
    <g id="xtick_4">
     <g id="line2d_4">
      <g>
       <use style="stroke:#000000;stroke-width:0.8;" x="175.70711" xlink:href="#m2dfb009d5b" y="252"/>
      </g>
     </g>
     <g id="text_4">
      <!-- 0.00 -->
      <g transform="translate(164.574297 266.598437)scale(0.1 -0.1)">
       <use xlink:href="#DejaVuSans-48"/>
       <use x="63.623047" xlink:href="#DejaVuSans-46"/>
       <use x="95.410156" xlink:href="#DejaVuSans-48"/>
       <use x="159.033203" xlink:href="#DejaVuSans-48"/>
      </g>
     </g>
    </g>
    <g id="xtick_5">
     <g id="line2d_5">
      <g>
       <use style="stroke:#000000;stroke-width:0.8;" x="215.527167" xlink:href="#m2dfb009d5b" y="252"/>
      </g>
     </g>
     <g id="text_5">
      <!-- 0.02 -->
      <g transform="translate(204.394354 266.598437)scale(0.1 -0.1)">
       <use xlink:href="#DejaVuSans-48"/>
       <use x="63.623047" xlink:href="#DejaVuSans-46"/>
       <use x="95.410156" xlink:href="#DejaVuSans-48"/>
       <use x="159.033203" xlink:href="#DejaVuSans-50"/>
      </g>
     </g>
    </g>
    <g id="xtick_6">
     <g id="line2d_6">
      <g>
       <use style="stroke:#000000;stroke-width:0.8;" x="255.347223" xlink:href="#m2dfb009d5b" y="252"/>
      </g>
     </g>
     <g id="text_6">
      <!-- 0.04 -->
      <g transform="translate(244.214411 266.598437)scale(0.1 -0.1)">
       <use xlink:href="#DejaVuSans-48"/>
       <use x="63.623047" xlink:href="#DejaVuSans-46"/>
       <use x="95.410156" xlink:href="#DejaVuSans-48"/>
       <use x="159.033203" xlink:href="#DejaVuSans-52"/>
      </g>
     </g>
    </g>
    <g id="xtick_7">
     <g id="line2d_7">
      <g>
       <use style="stroke:#000000;stroke-width:0.8;" x="295.16728" xlink:href="#m2dfb009d5b" y="252"/>
      </g>
     </g>
     <g id="text_7">
      <!-- 0.06 -->
      <g transform="translate(284.034468 266.598437)scale(0.1 -0.1)">
       <use xlink:href="#DejaVuSans-48"/>
       <use x="63.623047" xlink:href="#DejaVuSans-46"/>
       <use x="95.410156" xlink:href="#DejaVuSans-48"/>
       <use x="159.033203" xlink:href="#DejaVuSans-54"/>
      </g>
     </g>
    </g>
    <g id="xtick_8">
     <g id="line2d_8">
      <g>
       <use style="stroke:#000000;stroke-width:0.8;" x="334.987337" xlink:href="#m2dfb009d5b" y="252"/>
      </g>
     </g>
     <g id="text_8">
      <!-- 0.08 -->
      <defs>
       <path d="M 31.78125 34.625 
Q 24.75 34.625 20.71875 30.859375 
Q 16.703125 27.09375 16.703125 20.515625 
Q 16.703125 13.921875 20.71875 10.15625 
Q 24.75 6.390625 31.78125 6.390625 
Q 38.8125 6.390625 42.859375 10.171875 
Q 46.921875 13.96875 46.921875 20.515625 
Q 46.921875 27.09375 42.890625 30.859375 
Q 38.875 34.625 31.78125 34.625 
z
M 21.921875 38.8125 
Q 15.578125 40.375 12.03125 44.71875 
Q 8.5 49.078125 8.5 55.328125 
Q 8.5 64.0625 14.71875 69.140625 
Q 20.953125 74.21875 31.78125 74.21875 
Q 42.671875 74.21875 48.875 69.140625 
Q 55.078125 64.0625 55.078125 55.328125 
Q 55.078125 49.078125 51.53125 44.71875 
Q 48 40.375 41.703125 38.8125 
Q 48.828125 37.15625 52.796875 32.3125 
Q 56.78125 27.484375 56.78125 20.515625 
Q 56.78125 9.90625 50.3125 4.234375 
Q 43.84375 -1.421875 31.78125 -1.421875 
Q 19.734375 -1.421875 13.25 4.234375 
Q 6.78125 9.90625 6.78125 20.515625 
Q 6.78125 27.484375 10.78125 32.3125 
Q 14.796875 37.15625 21.921875 38.8125 
z
M 18.3125 54.390625 
Q 18.3125 48.734375 21.84375 45.5625 
Q 25.390625 42.390625 31.78125 42.390625 
Q 38.140625 42.390625 41.71875 45.5625 
Q 45.3125 48.734375 45.3125 54.390625 
Q 45.3125 60.0625 41.71875 63.234375 
Q 38.140625 66.40625 31.78125 66.40625 
Q 25.390625 66.40625 21.84375 63.234375 
Q 18.3125 60.0625 18.3125 54.390625 
z
" id="DejaVuSans-56"/>
      </defs>
      <g transform="translate(323.854525 266.598437)scale(0.1 -0.1)">
       <use xlink:href="#DejaVuSans-48"/>
       <use x="63.623047" xlink:href="#DejaVuSans-46"/>
       <use x="95.410156" xlink:href="#DejaVuSans-48"/>
       <use x="159.033203" xlink:href="#DejaVuSans-56"/>
      </g>
     </g>
    </g>
    <g id="xtick_9">
     <g id="line2d_9">
      <g>
       <use style="stroke:#000000;stroke-width:0.8;" x="374.807394" xlink:href="#m2dfb009d5b" y="252"/>
      </g>
     </g>
     <g id="text_9">
      <!-- 0.10 -->
      <defs>
       <path d="M 12.40625 8.296875 
L 28.515625 8.296875 
L 28.515625 63.921875 
L 10.984375 60.40625 
L 10.984375 69.390625 
L 28.421875 72.90625 
L 38.28125 72.90625 
L 38.28125 8.296875 
L 54.390625 8.296875 
L 54.390625 0 
L 12.40625 0 
z
" id="DejaVuSans-49"/>
      </defs>
      <g transform="translate(363.674582 266.598437)scale(0.1 -0.1)">
       <use xlink:href="#DejaVuSans-48"/>
       <use x="63.623047" xlink:href="#DejaVuSans-46"/>
       <use x="95.410156" xlink:href="#DejaVuSans-49"/>
       <use x="159.033203" xlink:href="#DejaVuSans-48"/>
      </g>
     </g>
    </g>
   </g>
   <g id="matplotlib.axis_2">
    <g id="ytick_1">
     <g id="line2d_10">
      <defs>
       <path d="M 0 0 
L -3.5 0 
" id="mcf32de8681" style="stroke:#000000;stroke-width:0.8;"/>
      </defs>
      <g>
       <use style="stroke:#000000;stroke-width:0.8;" x="54" xlink:href="#mcf32de8681" y="248.91896"/>
      </g>
     </g>
     <g id="text_10">
      <!-- −0.006 -->
      <g transform="translate(9.992188 252.718179)scale(0.1 -0.1)">
       <use xlink:href="#DejaVuSans-8722"/>
       <use x="83.789062" xlink:href="#DejaVuSans-48"/>
       <use x="147.412109" xlink:href="#DejaVuSans-46"/>
       <use x="179.199219" xlink:href="#DejaVuSans-48"/>
       <use x="242.822266" xlink:href="#DejaVuSans-48"/>
       <use x="306.445312" xlink:href="#DejaVuSans-54"/>
      </g>
     </g>
    </g>
    <g id="ytick_2">
     <g id="line2d_11">
      <g>
       <use style="stroke:#000000;stroke-width:0.8;" x="54" xlink:href="#mcf32de8681" y="220.237162"/>
      </g>
     </g>
     <g id="text_11">
      <!-- −0.004 -->
      <g transform="translate(9.992188 224.036381)scale(0.1 -0.1)">
       <use xlink:href="#DejaVuSans-8722"/>
       <use x="83.789062" xlink:href="#DejaVuSans-48"/>
       <use x="147.412109" xlink:href="#DejaVuSans-46"/>
       <use x="179.199219" xlink:href="#DejaVuSans-48"/>
       <use x="242.822266" xlink:href="#DejaVuSans-48"/>
       <use x="306.445312" xlink:href="#DejaVuSans-52"/>
      </g>
     </g>
    </g>
    <g id="ytick_3">
     <g id="line2d_12">
      <g>
       <use style="stroke:#000000;stroke-width:0.8;" x="54" xlink:href="#mcf32de8681" y="191.555365"/>
      </g>
     </g>
     <g id="text_12">
      <!-- −0.002 -->
      <g transform="translate(9.992188 195.354584)scale(0.1 -0.1)">
       <use xlink:href="#DejaVuSans-8722"/>
       <use x="83.789062" xlink:href="#DejaVuSans-48"/>
       <use x="147.412109" xlink:href="#DejaVuSans-46"/>
       <use x="179.199219" xlink:href="#DejaVuSans-48"/>
       <use x="242.822266" xlink:href="#DejaVuSans-48"/>
       <use x="306.445312" xlink:href="#DejaVuSans-50"/>
      </g>
     </g>
    </g>
    <g id="ytick_4">
     <g id="line2d_13">
      <g>
       <use style="stroke:#000000;stroke-width:0.8;" x="54" xlink:href="#mcf32de8681" y="162.873567"/>
      </g>
     </g>
     <g id="text_13">
      <!-- 0.000 -->
      <g transform="translate(18.371875 166.672786)scale(0.1 -0.1)">
       <use xlink:href="#DejaVuSans-48"/>
       <use x="63.623047" xlink:href="#DejaVuSans-46"/>
       <use x="95.410156" xlink:href="#DejaVuSans-48"/>
       <use x="159.033203" xlink:href="#DejaVuSans-48"/>
       <use x="222.65625" xlink:href="#DejaVuSans-48"/>
      </g>
     </g>
    </g>
    <g id="ytick_5">
     <g id="line2d_14">
      <g>
       <use style="stroke:#000000;stroke-width:0.8;" x="54" xlink:href="#mcf32de8681" y="134.191769"/>
      </g>
     </g>
     <g id="text_14">
      <!-- 0.002 -->
      <g transform="translate(18.371875 137.990988)scale(0.1 -0.1)">
       <use xlink:href="#DejaVuSans-48"/>
       <use x="63.623047" xlink:href="#DejaVuSans-46"/>
       <use x="95.410156" xlink:href="#DejaVuSans-48"/>
       <use x="159.033203" xlink:href="#DejaVuSans-48"/>
       <use x="222.65625" xlink:href="#DejaVuSans-50"/>
      </g>
     </g>
    </g>
    <g id="ytick_6">
     <g id="line2d_15">
      <g>
       <use style="stroke:#000000;stroke-width:0.8;" x="54" xlink:href="#mcf32de8681" y="105.509972"/>
      </g>
     </g>
     <g id="text_15">
      <!-- 0.004 -->
      <g transform="translate(18.371875 109.309191)scale(0.1 -0.1)">
       <use xlink:href="#DejaVuSans-48"/>
       <use x="63.623047" xlink:href="#DejaVuSans-46"/>
       <use x="95.410156" xlink:href="#DejaVuSans-48"/>
       <use x="159.033203" xlink:href="#DejaVuSans-48"/>
       <use x="222.65625" xlink:href="#DejaVuSans-52"/>
      </g>
     </g>
    </g>
    <g id="ytick_7">
     <g id="line2d_16">
      <g>
       <use style="stroke:#000000;stroke-width:0.8;" x="54" xlink:href="#mcf32de8681" y="76.828174"/>
      </g>
     </g>
     <g id="text_16">
      <!-- 0.006 -->
      <g transform="translate(18.371875 80.627393)scale(0.1 -0.1)">
       <use xlink:href="#DejaVuSans-48"/>
       <use x="63.623047" xlink:href="#DejaVuSans-46"/>
       <use x="95.410156" xlink:href="#DejaVuSans-48"/>
       <use x="159.033203" xlink:href="#DejaVuSans-48"/>
       <use x="222.65625" xlink:href="#DejaVuSans-54"/>
      </g>
     </g>
    </g>
    <g id="ytick_8">
     <g id="line2d_17">
      <g>
       <use style="stroke:#000000;stroke-width:0.8;" x="54" xlink:href="#mcf32de8681" y="48.146376"/>
      </g>
     </g>
     <g id="text_17">
      <!-- 0.008 -->
      <g transform="translate(18.371875 51.945595)scale(0.1 -0.1)">
       <use xlink:href="#DejaVuSans-48"/>
       <use x="63.623047" xlink:href="#DejaVuSans-46"/>
       <use x="95.410156" xlink:href="#DejaVuSans-48"/>
       <use x="159.033203" xlink:href="#DejaVuSans-48"/>
       <use x="222.65625" xlink:href="#DejaVuSans-56"/>
      </g>
     </g>
    </g>
   </g>
   <g id="patch_3">
    <path d="M 54 252 
L 54 34.56 
" style="fill:none;stroke:#000000;stroke-linecap:square;stroke-linejoin:miter;stroke-width:0.8;"/>
   </g>
   <g id="patch_4">
    <path d="M 388.8 252 
L 388.8 34.56 
" style="fill:none;stroke:#000000;stroke-linecap:square;stroke-linejoin:miter;stroke-width:0.8;"/>
   </g>
   <g id="patch_5">
    <path d="M 54 252 
L 388.8 252 
" style="fill:none;stroke:#000000;stroke-linecap:square;stroke-linejoin:miter;stroke-width:0.8;"/>
   </g>
   <g id="patch_6">
    <path d="M 54 34.56 
L 388.8 34.56 
" style="fill:none;stroke:#000000;stroke-linecap:square;stroke-linejoin:miter;stroke-width:0.8;"/>
   </g>
  </g>
 </g>
 <defs>
  <clipPath id="pd409f29af3">
   <rect height="217.44" width="334.8" x="54" y="34.56"/>
  </clipPath>
 </defs>
</svg>
