<?xml version="1.0" encoding="utf-8" standalone="no"?>
<!DOCTYPE svg PUBLIC "-//W3C//DTD SVG 1.1//EN"
  "http://www.w3.org/Graphics/SVG/1.1/DTD/svg11.dtd">
<!-- Created with matplotlib (https://matplotlib.org/) -->
<svg height="288pt" version="1.1" viewBox="0 0 432 288" width="432pt" xmlns="http://www.w3.org/2000/svg" xmlns:xlink="http://www.w3.org/1999/xlink">
 <defs>
  <style type="text/css">
*{stroke-linecap:butt;stroke-linejoin:round;}
  </style>
 </defs>
 <g id="figure_1">
  <g id="patch_1">
   <path d="M 0 288 
L 432 288 
L 432 0 
L 0 0 
z
" style="fill:#ffffff;"/>
  </g>
  <g id="axes_1">
   <g id="patch_2">
    <path d="M 54 252 
L 388.8 252 
L 388.8 34.56 
L 54 34.56 
z
" style="fill:#ffffff;"/>
   </g>
   <g id="PathCollection_1">
    <defs>
     <path d="M 0 3 
C 0.795609 3 1.55874 2.683901 2.12132 2.12132 
C 2.683901 1.55874 3 0.795609 3 0 
C 3 -0.795609 2.683901 -1.55874 2.12132 -2.12132 
C 1.55874 -2.683901 0.795609 -3 0 -3 
C -0.795609 -3 -1.55874 -2.683901 -2.12132 -2.12132 
C -2.683901 -1.55874 -3 -0.795609 -3 0 
C -3 0.795609 -2.683901 1.55874 -2.12132 2.12132 
C -1.55874 2.683901 -0.795609 3 0 3 
z
" id="C0_0_6641378a3c"/>
    </defs>
    <g clip-path="url(#p835025c086)">
     <use style="fill:#440154;stroke:#440154;" x="185.892379" xlink:href="#C0_0_6641378a3c" y="104.344893"/>
    </g>
    <g clip-path="url(#p835025c086)">
     <use style="fill:#440154;stroke:#440154;" x="125.53065" xlink:href="#C0_0_6641378a3c" y="160.543941"/>
    </g>
    <g clip-path="url(#p835025c086)">
     <use style="fill:#440154;stroke:#440154;" x="109.7641" xlink:href="#C0_0_6641378a3c" y="137.99005"/>
    </g>
    <g clip-path="url(#p835025c086)">
     <use style="fill:#440154;stroke:#440154;" x="69.218182" xlink:href="#C0_0_6641378a3c" y="138.972169"/>
    </g>
    <g clip-path="url(#p835025c086)">
     <use style="fill:#440154;stroke:#440154;" x="137.540912" xlink:href="#C0_0_6641378a3c" y="189.042766"/>
    </g>
    <g clip-path="url(#p835025c086)">
     <use style="fill:#440154;stroke:#440154;" x="259.062633" xlink:href="#C0_0_6641378a3c" y="163.357823"/>
    </g>
    <g clip-path="url(#p835025c086)">
     <use style="fill:#440154;stroke:#440154;" x="173.458397" xlink:href="#C0_0_6641378a3c" y="87.420068"/>
    </g>
    <g clip-path="url(#p835025c086)">
     <use style="fill:#440154;stroke:#440154;" x="151.637726" xlink:href="#C0_0_6641378a3c" y="190.691817"/>
    </g>
    <g clip-path="url(#p835025c086)">
     <use style="fill:#440154;stroke:#440154;" x="268.668401" xlink:href="#C0_0_6641378a3c" y="137.828354"/>
    </g>
    <g clip-path="url(#p835025c086)">
     <use style="fill:#440154;stroke:#440154;" x="134.131156" xlink:href="#C0_0_6641378a3c" y="203.833654"/>
    </g>
    <g clip-path="url(#p835025c086)">
     <use style="fill:#440154;stroke:#440154;" x="218.446336" xlink:href="#C0_0_6641378a3c" y="161.794337"/>
    </g>
    <g clip-path="url(#p835025c086)">
     <use style="fill:#440154;stroke:#440154;" x="165.453165" xlink:href="#C0_0_6641378a3c" y="223.901287"/>
    </g>
    <g clip-path="url(#p835025c086)">
     <use style="fill:#440154;stroke:#440154;" x="70.934477" xlink:href="#C0_0_6641378a3c" y="141.201483"/>
    </g>
    <g clip-path="url(#p835025c086)">
     <use style="fill:#440154;stroke:#440154;" x="307.653919" xlink:href="#C0_0_6641378a3c" y="131.602974"/>
    </g>
    <g clip-path="url(#p835025c086)">
     <use style="fill:#440154;stroke:#440154;" x="131.734068" xlink:href="#C0_0_6641378a3c" y="150.438515"/>
    </g>
    <g clip-path="url(#p835025c086)">
     <use style="fill:#440154;stroke:#440154;" x="162.283892" xlink:href="#C0_0_6641378a3c" y="172.684728"/>
    </g>
    <g clip-path="url(#p835025c086)">
     <use style="fill:#440154;stroke:#440154;" x="91.6288" xlink:href="#C0_0_6641378a3c" y="181.065672"/>
    </g>
    <g clip-path="url(#p835025c086)">
     <use style="fill:#440154;stroke:#440154;" x="88.901652" xlink:href="#C0_0_6641378a3c" y="171.996638"/>
    </g>
    <g clip-path="url(#p835025c086)">
     <use style="fill:#440154;stroke:#440154;" x="69.763346" xlink:href="#C0_0_6641378a3c" y="180.497871"/>
    </g>
    <g clip-path="url(#p835025c086)">
     <use style="fill:#440154;stroke:#440154;" x="136.504582" xlink:href="#C0_0_6641378a3c" y="179.042508"/>
    </g>
    <g clip-path="url(#p835025c086)">
     <use style="fill:#440154;stroke:#440154;" x="200.240603" xlink:href="#C0_0_6641378a3c" y="210.003072"/>
    </g>
    <g clip-path="url(#p835025c086)">
     <use style="fill:#440154;stroke:#440154;" x="103.62509" xlink:href="#C0_0_6641378a3c" y="166.843614"/>
    </g>
    <g clip-path="url(#p835025c086)">
     <use style="fill:#440154;stroke:#440154;" x="125.579759" xlink:href="#C0_0_6641378a3c" y="173.402903"/>
    </g>
    <g clip-path="url(#p835025c086)">
     <use style="fill:#440154;stroke:#440154;" x="87.266475" xlink:href="#C0_0_6641378a3c" y="147.66565"/>
    </g>
    <g clip-path="url(#p835025c086)">
     <use style="fill:#440154;stroke:#440154;" x="104.140432" xlink:href="#C0_0_6641378a3c" y="186.563822"/>
    </g>
    <g clip-path="url(#p835025c086)">
     <use style="fill:#440154;stroke:#440154;" x="178.320479" xlink:href="#C0_0_6641378a3c" y="216.129092"/>
    </g>
    <g clip-path="url(#p835025c086)">
     <use style="fill:#440154;stroke:#440154;" x="105.047455" xlink:href="#C0_0_6641378a3c" y="146.873203"/>
    </g>
    <g clip-path="url(#p835025c086)">
     <use style="fill:#440154;stroke:#440154;" x="142.286931" xlink:href="#C0_0_6641378a3c" y="128.173605"/>
    </g>
    <g clip-path="url(#p835025c086)">
     <use style="fill:#440154;stroke:#440154;" x="97.209112" xlink:href="#C0_0_6641378a3c" y="181.936464"/>
    </g>
    <g clip-path="url(#p835025c086)">
     <use style="fill:#440154;stroke:#440154;" x="94.839782" xlink:href="#C0_0_6641378a3c" y="105.654894"/>
    </g>
    <g clip-path="url(#p835025c086)">
     <use style="fill:#440154;stroke:#440154;" x="120.238191" xlink:href="#C0_0_6641378a3c" y="168.829032"/>
    </g>
    <g clip-path="url(#p835025c086)">
     <use style="fill:#440154;stroke:#440154;" x="129.70131" xlink:href="#C0_0_6641378a3c" y="163.638229"/>
    </g>
    <g clip-path="url(#p835025c086)">
     <use style="fill:#440154;stroke:#440154;" x="158.189159" xlink:href="#C0_0_6641378a3c" y="145.980935"/>
    </g>
    <g clip-path="url(#p835025c086)">
     <use style="fill:#440154;stroke:#440154;" x="117.819886" xlink:href="#C0_0_6641378a3c" y="144.001345"/>
    </g>
    <g clip-path="url(#p835025c086)">
     <use style="fill:#440154;stroke:#440154;" x="165.71821" xlink:href="#C0_0_6641378a3c" y="158.002252"/>
    </g>
    <g clip-path="url(#p835025c086)">
     <use style="fill:#440154;stroke:#440154;" x="117.292204" xlink:href="#C0_0_6641378a3c" y="180.376588"/>
    </g>
    <g clip-path="url(#p835025c086)">
     <use style="fill:#440154;stroke:#440154;" x="123.25018" xlink:href="#C0_0_6641378a3c" y="173.785448"/>
    </g>
    <g clip-path="url(#p835025c086)">
     <use style="fill:#440154;stroke:#440154;" x="116.407977" xlink:href="#C0_0_6641378a3c" y="210.243615"/>
    </g>
    <g clip-path="url(#p835025c086)">
     <use style="fill:#440154;stroke:#440154;" x="140.249832" xlink:href="#C0_0_6641378a3c" y="238.166663"/>
    </g>
    <g clip-path="url(#p835025c086)">
     <use style="fill:#440154;stroke:#440154;" x="132.89174" xlink:href="#C0_0_6641378a3c" y="137.840946"/>
    </g>
    <g clip-path="url(#p835025c086)">
     <use style="fill:#440154;stroke:#440154;" x="138.338627" xlink:href="#C0_0_6641378a3c" y="157.097943"/>
    </g>
    <g clip-path="url(#p835025c086)">
     <use style="fill:#440154;stroke:#440154;" x="127.0878" xlink:href="#C0_0_6641378a3c" y="175.319527"/>
    </g>
    <g clip-path="url(#p835025c086)">
     <use style="fill:#440154;stroke:#440154;" x="100.458928" xlink:href="#C0_0_6641378a3c" y="194.535571"/>
    </g>
    <g clip-path="url(#p835025c086)">
     <use style="fill:#440154;stroke:#440154;" x="110.758174" xlink:href="#C0_0_6641378a3c" y="161.034149"/>
    </g>
    <g clip-path="url(#p835025c086)">
     <use style="fill:#440154;stroke:#440154;" x="118.519233" xlink:href="#C0_0_6641378a3c" y="191.687545"/>
    </g>
    <g clip-path="url(#p835025c086)">
     <use style="fill:#440154;stroke:#440154;" x="249.285584" xlink:href="#C0_0_6641378a3c" y="204.237303"/>
    </g>
    <g clip-path="url(#p835025c086)">
     <use style="fill:#440154;stroke:#440154;" x="113.364366" xlink:href="#C0_0_6641378a3c" y="159.519771"/>
    </g>
    <g clip-path="url(#p835025c086)">
     <use style="fill:#440154;stroke:#440154;" x="105.642601" xlink:href="#C0_0_6641378a3c" y="172.976542"/>
    </g>
    <g clip-path="url(#p835025c086)">
     <use style="fill:#440154;stroke:#440154;" x="81.126209" xlink:href="#C0_0_6641378a3c" y="139.503532"/>
    </g>
    <g clip-path="url(#p835025c086)">
     <use style="fill:#440154;stroke:#440154;" x="125.67193" xlink:href="#C0_0_6641378a3c" y="213.11633"/>
    </g>
    <g clip-path="url(#p835025c086)">
     <use style="fill:#440154;stroke:#440154;" x="95.841875" xlink:href="#C0_0_6641378a3c" y="155.070141"/>
    </g>
    <g clip-path="url(#p835025c086)">
     <use style="fill:#440154;stroke:#440154;" x="134.740341" xlink:href="#C0_0_6641378a3c" y="171.249014"/>
    </g>
    <g clip-path="url(#p835025c086)">
     <use style="fill:#440154;stroke:#440154;" x="125.434095" xlink:href="#C0_0_6641378a3c" y="139.027748"/>
    </g>
    <g clip-path="url(#p835025c086)">
     <use style="fill:#440154;stroke:#440154;" x="135.000147" xlink:href="#C0_0_6641378a3c" y="144.555156"/>
    </g>
    <g clip-path="url(#p835025c086)">
     <use style="fill:#440154;stroke:#440154;" x="115.341912" xlink:href="#C0_0_6641378a3c" y="190.711217"/>
    </g>
    <g clip-path="url(#p835025c086)">
     <use style="fill:#440154;stroke:#440154;" x="85.634721" xlink:href="#C0_0_6641378a3c" y="167.807742"/>
    </g>
    <g clip-path="url(#p835025c086)">
     <use style="fill:#440154;stroke:#440154;" x="118.836989" xlink:href="#C0_0_6641378a3c" y="147.305235"/>
    </g>
    <g clip-path="url(#p835025c086)">
     <use style="fill:#440154;stroke:#440154;" x="127.648174" xlink:href="#C0_0_6641378a3c" y="155.43592"/>
    </g>
    <g clip-path="url(#p835025c086)">
     <use style="fill:#440154;stroke:#440154;" x="109.435313" xlink:href="#C0_0_6641378a3c" y="166.425001"/>
    </g>
    <g clip-path="url(#p835025c086)">
     <use style="fill:#440154;stroke:#440154;" x="127.487046" xlink:href="#C0_0_6641378a3c" y="190.864258"/>
    </g>
    <g clip-path="url(#p835025c086)">
     <use style="fill:#440154;stroke:#440154;" x="87.084365" xlink:href="#C0_0_6641378a3c" y="146.465533"/>
    </g>
    <g clip-path="url(#p835025c086)">
     <use style="fill:#440154;stroke:#440154;" x="89.740067" xlink:href="#C0_0_6641378a3c" y="190.139157"/>
    </g>
    <g clip-path="url(#p835025c086)">
     <use style="fill:#440154;stroke:#440154;" x="101.720027" xlink:href="#C0_0_6641378a3c" y="156.698902"/>
    </g>
    <g clip-path="url(#p835025c086)">
     <use style="fill:#440154;stroke:#440154;" x="130.991314" xlink:href="#C0_0_6641378a3c" y="143.848681"/>
    </g>
    <g clip-path="url(#p835025c086)">
     <use style="fill:#440154;stroke:#440154;" x="109.343775" xlink:href="#C0_0_6641378a3c" y="164.057913"/>
    </g>
    <g clip-path="url(#p835025c086)">
     <use style="fill:#440154;stroke:#440154;" x="115.849243" xlink:href="#C0_0_6641378a3c" y="193.335155"/>
    </g>
    <g clip-path="url(#p835025c086)">
     <use style="fill:#440154;stroke:#440154;" x="102.049247" xlink:href="#C0_0_6641378a3c" y="148.759898"/>
    </g>
    <g clip-path="url(#p835025c086)">
     <use style="fill:#440154;stroke:#440154;" x="126.186404" xlink:href="#C0_0_6641378a3c" y="195.08581"/>
    </g>
    <g clip-path="url(#p835025c086)">
     <use style="fill:#440154;stroke:#440154;" x="109.143223" xlink:href="#C0_0_6641378a3c" y="179.947913"/>
    </g>
    <g clip-path="url(#p835025c086)">
     <use style="fill:#440154;stroke:#440154;" x="120.285727" xlink:href="#C0_0_6641378a3c" y="190.104028"/>
    </g>
    <g clip-path="url(#p835025c086)">
     <use style="fill:#440154;stroke:#440154;" x="87.49743" xlink:href="#C0_0_6641378a3c" y="147.79046"/>
    </g>
    <g clip-path="url(#p835025c086)">
     <use style="fill:#440154;stroke:#440154;" x="110.509745" xlink:href="#C0_0_6641378a3c" y="129.512904"/>
    </g>
    <g clip-path="url(#p835025c086)">
     <use style="fill:#440154;stroke:#440154;" x="137.004064" xlink:href="#C0_0_6641378a3c" y="172.285803"/>
    </g>
    <g clip-path="url(#p835025c086)">
     <use style="fill:#440154;stroke:#440154;" x="133.897067" xlink:href="#C0_0_6641378a3c" y="112.77815"/>
    </g>
    <g clip-path="url(#p835025c086)">
     <use style="fill:#440154;stroke:#440154;" x="150.19595" xlink:href="#C0_0_6641378a3c" y="131.426406"/>
    </g>
    <g clip-path="url(#p835025c086)">
     <use style="fill:#440154;stroke:#440154;" x="193.171553" xlink:href="#C0_0_6641378a3c" y="184.776259"/>
    </g>
    <g clip-path="url(#p835025c086)">
     <use style="fill:#440154;stroke:#440154;" x="131.209116" xlink:href="#C0_0_6641378a3c" y="200.92124"/>
    </g>
    <g clip-path="url(#p835025c086)">
     <use style="fill:#440154;stroke:#440154;" x="138.585252" xlink:href="#C0_0_6641378a3c" y="145.808065"/>
    </g>
    <g clip-path="url(#p835025c086)">
     <use style="fill:#440154;stroke:#440154;" x="152.782555" xlink:href="#C0_0_6641378a3c" y="150.676685"/>
    </g>
    <g clip-path="url(#p835025c086)">
     <use style="fill:#440154;stroke:#440154;" x="107.675708" xlink:href="#C0_0_6641378a3c" y="124.969476"/>
    </g>
    <g clip-path="url(#p835025c086)">
     <use style="fill:#440154;stroke:#440154;" x="106.54546" xlink:href="#C0_0_6641378a3c" y="157.921542"/>
    </g>
    <g clip-path="url(#p835025c086)">
     <use style="fill:#440154;stroke:#440154;" x="182.684786" xlink:href="#C0_0_6641378a3c" y="171.518784"/>
    </g>
    <g clip-path="url(#p835025c086)">
     <use style="fill:#440154;stroke:#440154;" x="150.254656" xlink:href="#C0_0_6641378a3c" y="148.085611"/>
    </g>
    <g clip-path="url(#p835025c086)">
     <use style="fill:#440154;stroke:#440154;" x="129.885695" xlink:href="#C0_0_6641378a3c" y="167.048808"/>
    </g>
    <g clip-path="url(#p835025c086)">
     <use style="fill:#440154;stroke:#440154;" x="160.517047" xlink:href="#C0_0_6641378a3c" y="139.928333"/>
    </g>
    <g clip-path="url(#p835025c086)">
     <use style="fill:#440154;stroke:#440154;" x="123.019947" xlink:href="#C0_0_6641378a3c" y="138.808249"/>
    </g>
    <g clip-path="url(#p835025c086)">
     <use style="fill:#440154;stroke:#440154;" x="138.512724" xlink:href="#C0_0_6641378a3c" y="136.489806"/>
    </g>
    <g clip-path="url(#p835025c086)">
     <use style="fill:#440154;stroke:#440154;" x="104.980682" xlink:href="#C0_0_6641378a3c" y="154.661869"/>
    </g>
    <g clip-path="url(#p835025c086)">
     <use style="fill:#440154;stroke:#440154;" x="117.221986" xlink:href="#C0_0_6641378a3c" y="133.776769"/>
    </g>
    <g clip-path="url(#p835025c086)">
     <use style="fill:#440154;stroke:#440154;" x="129.521547" xlink:href="#C0_0_6641378a3c" y="199.678906"/>
    </g>
    <g clip-path="url(#p835025c086)">
     <use style="fill:#440154;stroke:#440154;" x="146.046067" xlink:href="#C0_0_6641378a3c" y="195.194314"/>
    </g>
    <g clip-path="url(#p835025c086)">
     <use style="fill:#440154;stroke:#440154;" x="172.981248" xlink:href="#C0_0_6641378a3c" y="171.736821"/>
    </g>
    <g clip-path="url(#p835025c086)">
     <use style="fill:#440154;stroke:#440154;" x="113.159322" xlink:href="#C0_0_6641378a3c" y="179.602395"/>
    </g>
    <g clip-path="url(#p835025c086)">
     <use style="fill:#440154;stroke:#440154;" x="120.086298" xlink:href="#C0_0_6641378a3c" y="167.219787"/>
    </g>
    <g clip-path="url(#p835025c086)">
     <use style="fill:#440154;stroke:#440154;" x="129.418325" xlink:href="#C0_0_6641378a3c" y="188.230929"/>
    </g>
    <g clip-path="url(#p835025c086)">
     <use style="fill:#440154;stroke:#440154;" x="151.631626" xlink:href="#C0_0_6641378a3c" y="112.520735"/>
    </g>
    <g clip-path="url(#p835025c086)">
     <use style="fill:#440154;stroke:#440154;" x="137.748551" xlink:href="#C0_0_6641378a3c" y="87.911838"/>
    </g>
    <g clip-path="url(#p835025c086)">
     <use style="fill:#440154;stroke:#440154;" x="189.409021" xlink:href="#C0_0_6641378a3c" y="183.520339"/>
    </g>
    <g clip-path="url(#p835025c086)">
     <use style="fill:#440154;stroke:#440154;" x="174.780097" xlink:href="#C0_0_6641378a3c" y="169.612849"/>
    </g>
    <g clip-path="url(#p835025c086)">
     <use style="fill:#440154;stroke:#440154;" x="186.154719" xlink:href="#C0_0_6641378a3c" y="177.438018"/>
    </g>
    <g clip-path="url(#p835025c086)">
     <use style="fill:#440154;stroke:#440154;" x="90.849898" xlink:href="#C0_0_6641378a3c" y="219.080101"/>
    </g>
    <g clip-path="url(#p835025c086)">
     <use style="fill:#440154;stroke:#440154;" x="373.581818" xlink:href="#C0_0_6641378a3c" y="175.397192"/>
    </g>
    <g clip-path="url(#p835025c086)">
     <use style="fill:#440154;stroke:#440154;" x="282.469588" xlink:href="#C0_0_6641378a3c" y="154.790271"/>
    </g>
    <g clip-path="url(#p835025c086)">
     <use style="fill:#fde725;stroke:#fde725;" x="160.296662" xlink:href="#C0_0_6641378a3c" y="209.238309"/>
    </g>
    <g clip-path="url(#p835025c086)">
     <use style="fill:#fde725;stroke:#fde725;" x="137.94142" xlink:href="#C0_0_6641378a3c" y="204.154096"/>
    </g>
    <g clip-path="url(#p835025c086)">
     <use style="fill:#fde725;stroke:#fde725;" x="143.681354" xlink:href="#C0_0_6641378a3c" y="203.348204"/>
    </g>
    <g clip-path="url(#p835025c086)">
     <use style="fill:#fde725;stroke:#fde725;" x="122.678516" xlink:href="#C0_0_6641378a3c" y="228.341883"/>
    </g>
    <g clip-path="url(#p835025c086)">
     <use style="fill:#fde725;stroke:#fde725;" x="150.193659" xlink:href="#C0_0_6641378a3c" y="230.434239"/>
    </g>
    <g clip-path="url(#p835025c086)">
     <use style="fill:#fde725;stroke:#fde725;" x="110.982935" xlink:href="#C0_0_6641378a3c" y="206.726695"/>
    </g>
    <g clip-path="url(#p835025c086)">
     <use style="fill:#fde725;stroke:#fde725;" x="160.859072" xlink:href="#C0_0_6641378a3c" y="241.033296"/>
    </g>
    <g clip-path="url(#p835025c086)">
     <use style="fill:#fde725;stroke:#fde725;" x="150.847661" xlink:href="#C0_0_6641378a3c" y="135.007374"/>
    </g>
    <g clip-path="url(#p835025c086)">
     <use style="fill:#fde725;stroke:#fde725;" x="207.816183" xlink:href="#C0_0_6641378a3c" y="169.051517"/>
    </g>
    <g clip-path="url(#p835025c086)">
     <use style="fill:#fde725;stroke:#fde725;" x="149.667254" xlink:href="#C0_0_6641378a3c" y="180.118536"/>
    </g>
    <g clip-path="url(#p835025c086)">
     <use style="fill:#fde725;stroke:#fde725;" x="172.365854" xlink:href="#C0_0_6641378a3c" y="228.291254"/>
    </g>
    <g clip-path="url(#p835025c086)">
     <use style="fill:#fde725;stroke:#fde725;" x="71.855973" xlink:href="#C0_0_6641378a3c" y="199.223107"/>
    </g>
    <g clip-path="url(#p835025c086)">
     <use style="fill:#fde725;stroke:#fde725;" x="160.709774" xlink:href="#C0_0_6641378a3c" y="230.151946"/>
    </g>
    <g clip-path="url(#p835025c086)">
     <use style="fill:#fde725;stroke:#fde725;" x="160.735203" xlink:href="#C0_0_6641378a3c" y="208.918942"/>
    </g>
    <g clip-path="url(#p835025c086)">
     <use style="fill:#fde725;stroke:#fde725;" x="168.975707" xlink:href="#C0_0_6641378a3c" y="180.187704"/>
    </g>
    <g clip-path="url(#p835025c086)">
     <use style="fill:#fde725;stroke:#fde725;" x="161.552558" xlink:href="#C0_0_6641378a3c" y="233.600467"/>
    </g>
    <g clip-path="url(#p835025c086)">
     <use style="fill:#fde725;stroke:#fde725;" x="142.114216" xlink:href="#C0_0_6641378a3c" y="210.286909"/>
    </g>
    <g clip-path="url(#p835025c086)">
     <use style="fill:#fde725;stroke:#fde725;" x="180.941268" xlink:href="#C0_0_6641378a3c" y="190.898796"/>
    </g>
    <g clip-path="url(#p835025c086)">
     <use style="fill:#fde725;stroke:#fde725;" x="94.333393" xlink:href="#C0_0_6641378a3c" y="233.490445"/>
    </g>
    <g clip-path="url(#p835025c086)">
     <use style="fill:#fde725;stroke:#fde725;" x="144.393665" xlink:href="#C0_0_6641378a3c" y="208.144365"/>
    </g>
    <g clip-path="url(#p835025c086)">
     <use style="fill:#fde725;stroke:#fde725;" x="151.612695" xlink:href="#C0_0_6641378a3c" y="242.116364"/>
    </g>
    <g clip-path="url(#p835025c086)">
     <use style="fill:#fde725;stroke:#fde725;" x="125.016476" xlink:href="#C0_0_6641378a3c" y="221.973833"/>
    </g>
    <g clip-path="url(#p835025c086)">
     <use style="fill:#fde725;stroke:#fde725;" x="121.794096" xlink:href="#C0_0_6641378a3c" y="224.03755"/>
    </g>
    <g clip-path="url(#p835025c086)">
     <use style="fill:#fde725;stroke:#fde725;" x="111.636003" xlink:href="#C0_0_6641378a3c" y="202.163074"/>
    </g>
    <g clip-path="url(#p835025c086)">
     <use style="fill:#fde725;stroke:#fde725;" x="131.047931" xlink:href="#C0_0_6641378a3c" y="221.443759"/>
    </g>
    <g clip-path="url(#p835025c086)">
     <use style="fill:#fde725;stroke:#fde725;" x="154.635502" xlink:href="#C0_0_6641378a3c" y="195.578274"/>
    </g>
    <g clip-path="url(#p835025c086)">
     <use style="fill:#fde725;stroke:#fde725;" x="183.916069" xlink:href="#C0_0_6641378a3c" y="201.83712"/>
    </g>
    <g clip-path="url(#p835025c086)">
     <use style="fill:#fde725;stroke:#fde725;" x="154.571209" xlink:href="#C0_0_6641378a3c" y="167.229881"/>
    </g>
    <g clip-path="url(#p835025c086)">
     <use style="fill:#fde725;stroke:#fde725;" x="170.113219" xlink:href="#C0_0_6641378a3c" y="44.443636"/>
    </g>
    <g clip-path="url(#p835025c086)">
     <use style="fill:#fde725;stroke:#fde725;" x="93.836582" xlink:href="#C0_0_6641378a3c" y="169.306477"/>
    </g>
    <g clip-path="url(#p835025c086)">
     <use style="fill:#fde725;stroke:#fde725;" x="211.912064" xlink:href="#C0_0_6641378a3c" y="194.434976"/>
    </g>
    <g clip-path="url(#p835025c086)">
     <use style="fill:#fde725;stroke:#fde725;" x="180.515105" xlink:href="#C0_0_6641378a3c" y="148.199749"/>
    </g>
    <g clip-path="url(#p835025c086)">
     <use style="fill:#fde725;stroke:#fde725;" x="112.994141" xlink:href="#C0_0_6641378a3c" y="229.172485"/>
    </g>
   </g>
   <g id="matplotlib.axis_1">
    <g id="xtick_1">
     <g id="line2d_1">
      <defs>
       <path d="M 0 0 
L 0 3.5 
" id="m266b9a9335" style="stroke:#000000;stroke-width:0.8;"/>
      </defs>
      <g>
       <use style="stroke:#000000;stroke-width:0.8;" x="57.50894" xlink:href="#m266b9a9335" y="252"/>
      </g>
     </g>
     <g id="text_1">
      <!-- −0.0010 -->
      <defs>
       <path d="M 10.59375 35.5 
L 73.1875 35.5 
L 73.1875 27.203125 
L 10.59375 27.203125 
z
" id="DejaVuSans-8722"/>
       <path d="M 31.78125 66.40625 
Q 24.171875 66.40625 20.328125 58.90625 
Q 16.5 51.421875 16.5 36.375 
Q 16.5 21.390625 20.328125 13.890625 
Q 24.171875 6.390625 31.78125 6.390625 
Q 39.453125 6.390625 43.28125 13.890625 
Q 47.125 21.390625 47.125 36.375 
Q 47.125 51.421875 43.28125 58.90625 
Q 39.453125 66.40625 31.78125 66.40625 
z
M 31.78125 74.21875 
Q 44.046875 74.21875 50.515625 64.515625 
Q 56.984375 54.828125 56.984375 36.375 
Q 56.984375 17.96875 50.515625 8.265625 
Q 44.046875 -1.421875 31.78125 -1.421875 
Q 19.53125 -1.421875 13.0625 8.265625 
Q 6.59375 17.96875 6.59375 36.375 
Q 6.59375 54.828125 13.0625 64.515625 
Q 19.53125 74.21875 31.78125 74.21875 
z
" id="DejaVuSans-48"/>
       <path d="M 10.6875 12.40625 
L 21 12.40625 
L 21 0 
L 10.6875 0 
z
" id="DejaVuSans-46"/>
       <path d="M 12.40625 8.296875 
L 28.515625 8.296875 
L 28.515625 63.921875 
L 10.984375 60.40625 
L 10.984375 69.390625 
L 28.421875 72.90625 
L 38.28125 72.90625 
L 38.28125 8.296875 
L 54.390625 8.296875 
L 54.390625 0 
L 12.40625 0 
z
" id="DejaVuSans-49"/>
      </defs>
      <g transform="translate(35.823784 266.598437)scale(0.1 -0.1)">
       <use xlink:href="#DejaVuSans-8722"/>
       <use x="83.789062" xlink:href="#DejaVuSans-48"/>
       <use x="147.412109" xlink:href="#DejaVuSans-46"/>
       <use x="179.199219" xlink:href="#DejaVuSans-48"/>
       <use x="242.822266" xlink:href="#DejaVuSans-48"/>
       <use x="306.445312" xlink:href="#DejaVuSans-49"/>
       <use x="370.068359" xlink:href="#DejaVuSans-48"/>
      </g>
     </g>
    </g>
    <g id="xtick_2">
     <g id="line2d_2">
      <g>
       <use style="stroke:#000000;stroke-width:0.8;" x="98.48647" xlink:href="#m266b9a9335" y="252"/>
      </g>
     </g>
     <g id="text_2">
      <!-- −0.0005 -->
      <defs>
       <path d="M 10.796875 72.90625 
L 49.515625 72.90625 
L 49.515625 64.59375 
L 19.828125 64.59375 
L 19.828125 46.734375 
Q 21.96875 47.46875 24.109375 47.828125 
Q 26.265625 48.1875 28.421875 48.1875 
Q 40.625 48.1875 47.75 41.5 
Q 54.890625 34.8125 54.890625 23.390625 
Q 54.890625 11.625 47.5625 5.09375 
Q 40.234375 -1.421875 26.90625 -1.421875 
Q 22.3125 -1.421875 17.546875 -0.640625 
Q 12.796875 0.140625 7.71875 1.703125 
L 7.71875 11.625 
Q 12.109375 9.234375 16.796875 8.0625 
Q 21.484375 6.890625 26.703125 6.890625 
Q 35.15625 6.890625 40.078125 11.328125 
Q 45.015625 15.765625 45.015625 23.390625 
Q 45.015625 31 40.078125 35.4375 
Q 35.15625 39.890625 26.703125 39.890625 
Q 22.75 39.890625 18.8125 39.015625 
Q 14.890625 38.140625 10.796875 36.28125 
z
" id="DejaVuSans-53"/>
      </defs>
      <g transform="translate(76.801314 266.598437)scale(0.1 -0.1)">
       <use xlink:href="#DejaVuSans-8722"/>
       <use x="83.789062" xlink:href="#DejaVuSans-48"/>
       <use x="147.412109" xlink:href="#DejaVuSans-46"/>
       <use x="179.199219" xlink:href="#DejaVuSans-48"/>
       <use x="242.822266" xlink:href="#DejaVuSans-48"/>
       <use x="306.445312" xlink:href="#DejaVuSans-48"/>
       <use x="370.068359" xlink:href="#DejaVuSans-53"/>
      </g>
     </g>
    </g>
    <g id="xtick_3">
     <g id="line2d_3">
      <g>
       <use style="stroke:#000000;stroke-width:0.8;" x="139.464" xlink:href="#m266b9a9335" y="252"/>
      </g>
     </g>
     <g id="text_3">
      <!-- 0.0000 -->
      <g transform="translate(121.968688 266.598437)scale(0.1 -0.1)">
       <use xlink:href="#DejaVuSans-48"/>
       <use x="63.623047" xlink:href="#DejaVuSans-46"/>
       <use x="95.410156" xlink:href="#DejaVuSans-48"/>
       <use x="159.033203" xlink:href="#DejaVuSans-48"/>
       <use x="222.65625" xlink:href="#DejaVuSans-48"/>
       <use x="286.279297" xlink:href="#DejaVuSans-48"/>
      </g>
     </g>
    </g>
    <g id="xtick_4">
     <g id="line2d_4">
      <g>
       <use style="stroke:#000000;stroke-width:0.8;" x="180.44153" xlink:href="#m266b9a9335" y="252"/>
      </g>
     </g>
     <g id="text_4">
      <!-- 0.0005 -->
      <g transform="translate(162.946217 266.598437)scale(0.1 -0.1)">
       <use xlink:href="#DejaVuSans-48"/>
       <use x="63.623047" xlink:href="#DejaVuSans-46"/>
       <use x="95.410156" xlink:href="#DejaVuSans-48"/>
       <use x="159.033203" xlink:href="#DejaVuSans-48"/>
       <use x="222.65625" xlink:href="#DejaVuSans-48"/>
       <use x="286.279297" xlink:href="#DejaVuSans-53"/>
      </g>
     </g>
    </g>
    <g id="xtick_5">
     <g id="line2d_5">
      <g>
       <use style="stroke:#000000;stroke-width:0.8;" x="221.41906" xlink:href="#m266b9a9335" y="252"/>
      </g>
     </g>
     <g id="text_5">
      <!-- 0.0010 -->
      <g transform="translate(203.923747 266.598437)scale(0.1 -0.1)">
       <use xlink:href="#DejaVuSans-48"/>
       <use x="63.623047" xlink:href="#DejaVuSans-46"/>
       <use x="95.410156" xlink:href="#DejaVuSans-48"/>
       <use x="159.033203" xlink:href="#DejaVuSans-48"/>
       <use x="222.65625" xlink:href="#DejaVuSans-49"/>
       <use x="286.279297" xlink:href="#DejaVuSans-48"/>
      </g>
     </g>
    </g>
    <g id="xtick_6">
     <g id="line2d_6">
      <g>
       <use style="stroke:#000000;stroke-width:0.8;" x="262.39659" xlink:href="#m266b9a9335" y="252"/>
      </g>
     </g>
     <g id="text_6">
      <!-- 0.0015 -->
      <g transform="translate(244.901277 266.598437)scale(0.1 -0.1)">
       <use xlink:href="#DejaVuSans-48"/>
       <use x="63.623047" xlink:href="#DejaVuSans-46"/>
       <use x="95.410156" xlink:href="#DejaVuSans-48"/>
       <use x="159.033203" xlink:href="#DejaVuSans-48"/>
       <use x="222.65625" xlink:href="#DejaVuSans-49"/>
       <use x="286.279297" xlink:href="#DejaVuSans-53"/>
      </g>
     </g>
    </g>
    <g id="xtick_7">
     <g id="line2d_7">
      <g>
       <use style="stroke:#000000;stroke-width:0.8;" x="303.37412" xlink:href="#m266b9a9335" y="252"/>
      </g>
     </g>
     <g id="text_7">
      <!-- 0.0020 -->
      <defs>
       <path d="M 19.1875 8.296875 
L 53.609375 8.296875 
L 53.609375 0 
L 7.328125 0 
L 7.328125 8.296875 
Q 12.9375 14.109375 22.625 23.890625 
Q 32.328125 33.6875 34.8125 36.53125 
Q 39.546875 41.84375 41.421875 45.53125 
Q 43.3125 49.21875 43.3125 52.78125 
Q 43.3125 58.59375 39.234375 62.25 
Q 35.15625 65.921875 28.609375 65.921875 
Q 23.96875 65.921875 18.8125 64.3125 
Q 13.671875 62.703125 7.8125 59.421875 
L 7.8125 69.390625 
Q 13.765625 71.78125 18.9375 73 
Q 24.125 74.21875 28.421875 74.21875 
Q 39.75 74.21875 46.484375 68.546875 
Q 53.21875 62.890625 53.21875 53.421875 
Q 53.21875 48.921875 51.53125 44.890625 
Q 49.859375 40.875 45.40625 35.40625 
Q 44.1875 33.984375 37.640625 27.21875 
Q 31.109375 20.453125 19.1875 8.296875 
z
" id="DejaVuSans-50"/>
      </defs>
      <g transform="translate(285.878807 266.598437)scale(0.1 -0.1)">
       <use xlink:href="#DejaVuSans-48"/>
       <use x="63.623047" xlink:href="#DejaVuSans-46"/>
       <use x="95.410156" xlink:href="#DejaVuSans-48"/>
       <use x="159.033203" xlink:href="#DejaVuSans-48"/>
       <use x="222.65625" xlink:href="#DejaVuSans-50"/>
       <use x="286.279297" xlink:href="#DejaVuSans-48"/>
      </g>
     </g>
    </g>
    <g id="xtick_8">
     <g id="line2d_8">
      <g>
       <use style="stroke:#000000;stroke-width:0.8;" x="344.35165" xlink:href="#m266b9a9335" y="252"/>
      </g>
     </g>
     <g id="text_8">
      <!-- 0.0025 -->
      <g transform="translate(326.856337 266.598437)scale(0.1 -0.1)">
       <use xlink:href="#DejaVuSans-48"/>
       <use x="63.623047" xlink:href="#DejaVuSans-46"/>
       <use x="95.410156" xlink:href="#DejaVuSans-48"/>
       <use x="159.033203" xlink:href="#DejaVuSans-48"/>
       <use x="222.65625" xlink:href="#DejaVuSans-50"/>
       <use x="286.279297" xlink:href="#DejaVuSans-53"/>
      </g>
     </g>
    </g>
    <g id="xtick_9">
     <g id="line2d_9">
      <g>
       <use style="stroke:#000000;stroke-width:0.8;" x="385.32918" xlink:href="#m266b9a9335" y="252"/>
      </g>
     </g>
     <g id="text_9">
      <!-- 0.0030 -->
      <defs>
       <path d="M 40.578125 39.3125 
Q 47.65625 37.796875 51.625 33 
Q 55.609375 28.21875 55.609375 21.1875 
Q 55.609375 10.40625 48.1875 4.484375 
Q 40.765625 -1.421875 27.09375 -1.421875 
Q 22.515625 -1.421875 17.65625 -0.515625 
Q 12.796875 0.390625 7.625 2.203125 
L 7.625 11.71875 
Q 11.71875 9.328125 16.59375 8.109375 
Q 21.484375 6.890625 26.8125 6.890625 
Q 36.078125 6.890625 40.9375 10.546875 
Q 45.796875 14.203125 45.796875 21.1875 
Q 45.796875 27.640625 41.28125 31.265625 
Q 36.765625 34.90625 28.71875 34.90625 
L 20.21875 34.90625 
L 20.21875 43.015625 
L 29.109375 43.015625 
Q 36.375 43.015625 40.234375 45.921875 
Q 44.09375 48.828125 44.09375 54.296875 
Q 44.09375 59.90625 40.109375 62.90625 
Q 36.140625 65.921875 28.71875 65.921875 
Q 24.65625 65.921875 20.015625 65.03125 
Q 15.375 64.15625 9.8125 62.3125 
L 9.8125 71.09375 
Q 15.4375 72.65625 20.34375 73.4375 
Q 25.25 74.21875 29.59375 74.21875 
Q 40.828125 74.21875 47.359375 69.109375 
Q 53.90625 64.015625 53.90625 55.328125 
Q 53.90625 49.265625 50.4375 45.09375 
Q 46.96875 40.921875 40.578125 39.3125 
z
" id="DejaVuSans-51"/>
      </defs>
      <g transform="translate(367.833867 266.598437)scale(0.1 -0.1)">
       <use xlink:href="#DejaVuSans-48"/>
       <use x="63.623047" xlink:href="#DejaVuSans-46"/>
       <use x="95.410156" xlink:href="#DejaVuSans-48"/>
       <use x="159.033203" xlink:href="#DejaVuSans-48"/>
       <use x="222.65625" xlink:href="#DejaVuSans-51"/>
       <use x="286.279297" xlink:href="#DejaVuSans-48"/>
      </g>
     </g>
    </g>
   </g>
   <g id="matplotlib.axis_2">
    <g id="ytick_1">
     <g id="line2d_10">
      <defs>
       <path d="M 0 0 
L -3.5 0 
" id="m20ae848d15" style="stroke:#000000;stroke-width:0.8;"/>
      </defs>
      <g>
       <use style="stroke:#000000;stroke-width:0.8;" x="54" xlink:href="#m20ae848d15" y="250.540698"/>
      </g>
     </g>
     <g id="text_10">
      <!-- −0.06 -->
      <defs>
       <path d="M 33.015625 40.375 
Q 26.375 40.375 22.484375 35.828125 
Q 18.609375 31.296875 18.609375 23.390625 
Q 18.609375 15.53125 22.484375 10.953125 
Q 26.375 6.390625 33.015625 6.390625 
Q 39.65625 6.390625 43.53125 10.953125 
Q 47.40625 15.53125 47.40625 23.390625 
Q 47.40625 31.296875 43.53125 35.828125 
Q 39.65625 40.375 33.015625 40.375 
z
M 52.59375 71.296875 
L 52.59375 62.3125 
Q 48.875 64.0625 45.09375 64.984375 
Q 41.3125 65.921875 37.59375 65.921875 
Q 27.828125 65.921875 22.671875 59.328125 
Q 17.53125 52.734375 16.796875 39.40625 
Q 19.671875 43.65625 24.015625 45.921875 
Q 28.375 48.1875 33.59375 48.1875 
Q 44.578125 48.1875 50.953125 41.515625 
Q 57.328125 34.859375 57.328125 23.390625 
Q 57.328125 12.15625 50.6875 5.359375 
Q 44.046875 -1.421875 33.015625 -1.421875 
Q 20.359375 -1.421875 13.671875 8.265625 
Q 6.984375 17.96875 6.984375 36.375 
Q 6.984375 53.65625 15.1875 63.9375 
Q 23.390625 74.21875 37.203125 74.21875 
Q 40.921875 74.21875 44.703125 73.484375 
Q 48.484375 72.75 52.59375 71.296875 
z
" id="DejaVuSans-54"/>
      </defs>
      <g transform="translate(16.354687 254.339917)scale(0.1 -0.1)">
       <use xlink:href="#DejaVuSans-8722"/>
       <use x="83.789062" xlink:href="#DejaVuSans-48"/>
       <use x="147.412109" xlink:href="#DejaVuSans-46"/>
       <use x="179.199219" xlink:href="#DejaVuSans-48"/>
       <use x="242.822266" xlink:href="#DejaVuSans-54"/>
      </g>
     </g>
    </g>
    <g id="ytick_2">
     <g id="line2d_11">
      <g>
       <use style="stroke:#000000;stroke-width:0.8;" x="54" xlink:href="#m20ae848d15" y="224.679069"/>
      </g>
     </g>
     <g id="text_11">
      <!-- −0.04 -->
      <defs>
       <path d="M 37.796875 64.3125 
L 12.890625 25.390625 
L 37.796875 25.390625 
z
M 35.203125 72.90625 
L 47.609375 72.90625 
L 47.609375 25.390625 
L 58.015625 25.390625 
L 58.015625 17.1875 
L 47.609375 17.1875 
L 47.609375 0 
L 37.796875 0 
L 37.796875 17.1875 
L 4.890625 17.1875 
L 4.890625 26.703125 
z
" id="DejaVuSans-52"/>
      </defs>
      <g transform="translate(16.354687 228.478288)scale(0.1 -0.1)">
       <use xlink:href="#DejaVuSans-8722"/>
       <use x="83.789062" xlink:href="#DejaVuSans-48"/>
       <use x="147.412109" xlink:href="#DejaVuSans-46"/>
       <use x="179.199219" xlink:href="#DejaVuSans-48"/>
       <use x="242.822266" xlink:href="#DejaVuSans-52"/>
      </g>
     </g>
    </g>
    <g id="ytick_3">
     <g id="line2d_12">
      <g>
       <use style="stroke:#000000;stroke-width:0.8;" x="54" xlink:href="#m20ae848d15" y="198.817441"/>
      </g>
     </g>
     <g id="text_12">
      <!-- −0.02 -->
      <g transform="translate(16.354687 202.61666)scale(0.1 -0.1)">
       <use xlink:href="#DejaVuSans-8722"/>
       <use x="83.789062" xlink:href="#DejaVuSans-48"/>
       <use x="147.412109" xlink:href="#DejaVuSans-46"/>
       <use x="179.199219" xlink:href="#DejaVuSans-48"/>
       <use x="242.822266" xlink:href="#DejaVuSans-50"/>
      </g>
     </g>
    </g>
    <g id="ytick_4">
     <g id="line2d_13">
      <g>
       <use style="stroke:#000000;stroke-width:0.8;" x="54" xlink:href="#m20ae848d15" y="172.955813"/>
      </g>
     </g>
     <g id="text_13">
      <!-- 0.00 -->
      <g transform="translate(24.734375 176.755031)scale(0.1 -0.1)">
       <use xlink:href="#DejaVuSans-48"/>
       <use x="63.623047" xlink:href="#DejaVuSans-46"/>
       <use x="95.410156" xlink:href="#DejaVuSans-48"/>
       <use x="159.033203" xlink:href="#DejaVuSans-48"/>
      </g>
     </g>
    </g>
    <g id="ytick_5">
     <g id="line2d_14">
      <g>
       <use style="stroke:#000000;stroke-width:0.8;" x="54" xlink:href="#m20ae848d15" y="147.094184"/>
      </g>
     </g>
     <g id="text_14">
      <!-- 0.02 -->
      <g transform="translate(24.734375 150.893403)scale(0.1 -0.1)">
       <use xlink:href="#DejaVuSans-48"/>
       <use x="63.623047" xlink:href="#DejaVuSans-46"/>
       <use x="95.410156" xlink:href="#DejaVuSans-48"/>
       <use x="159.033203" xlink:href="#DejaVuSans-50"/>
      </g>
     </g>
    </g>
    <g id="ytick_6">
     <g id="line2d_15">
      <g>
       <use style="stroke:#000000;stroke-width:0.8;" x="54" xlink:href="#m20ae848d15" y="121.232556"/>
      </g>
     </g>
     <g id="text_15">
      <!-- 0.04 -->
      <g transform="translate(24.734375 125.031775)scale(0.1 -0.1)">
       <use xlink:href="#DejaVuSans-48"/>
       <use x="63.623047" xlink:href="#DejaVuSans-46"/>
       <use x="95.410156" xlink:href="#DejaVuSans-48"/>
       <use x="159.033203" xlink:href="#DejaVuSans-52"/>
      </g>
     </g>
    </g>
    <g id="ytick_7">
     <g id="line2d_16">
      <g>
       <use style="stroke:#000000;stroke-width:0.8;" x="54" xlink:href="#m20ae848d15" y="95.370928"/>
      </g>
     </g>
     <g id="text_16">
      <!-- 0.06 -->
      <g transform="translate(24.734375 99.170146)scale(0.1 -0.1)">
       <use xlink:href="#DejaVuSans-48"/>
       <use x="63.623047" xlink:href="#DejaVuSans-46"/>
       <use x="95.410156" xlink:href="#DejaVuSans-48"/>
       <use x="159.033203" xlink:href="#DejaVuSans-54"/>
      </g>
     </g>
    </g>
    <g id="ytick_8">
     <g id="line2d_17">
      <g>
       <use style="stroke:#000000;stroke-width:0.8;" x="54" xlink:href="#m20ae848d15" y="69.509299"/>
      </g>
     </g>
     <g id="text_17">
      <!-- 0.08 -->
      <defs>
       <path d="M 31.78125 34.625 
Q 24.75 34.625 20.71875 30.859375 
Q 16.703125 27.09375 16.703125 20.515625 
Q 16.703125 13.921875 20.71875 10.15625 
Q 24.75 6.390625 31.78125 6.390625 
Q 38.8125 6.390625 42.859375 10.171875 
Q 46.921875 13.96875 46.921875 20.515625 
Q 46.921875 27.09375 42.890625 30.859375 
Q 38.875 34.625 31.78125 34.625 
z
M 21.921875 38.8125 
Q 15.578125 40.375 12.03125 44.71875 
Q 8.5 49.078125 8.5 55.328125 
Q 8.5 64.0625 14.71875 69.140625 
Q 20.953125 74.21875 31.78125 74.21875 
Q 42.671875 74.21875 48.875 69.140625 
Q 55.078125 64.0625 55.078125 55.328125 
Q 55.078125 49.078125 51.53125 44.71875 
Q 48 40.375 41.703125 38.8125 
Q 48.828125 37.15625 52.796875 32.3125 
Q 56.78125 27.484375 56.78125 20.515625 
Q 56.78125 9.90625 50.3125 4.234375 
Q 43.84375 -1.421875 31.78125 -1.421875 
Q 19.734375 -1.421875 13.25 4.234375 
Q 6.78125 9.90625 6.78125 20.515625 
Q 6.78125 27.484375 10.78125 32.3125 
Q 14.796875 37.15625 21.921875 38.8125 
z
M 18.3125 54.390625 
Q 18.3125 48.734375 21.84375 45.5625 
Q 25.390625 42.390625 31.78125 42.390625 
Q 38.140625 42.390625 41.71875 45.5625 
Q 45.3125 48.734375 45.3125 54.390625 
Q 45.3125 60.0625 41.71875 63.234375 
Q 38.140625 66.40625 31.78125 66.40625 
Q 25.390625 66.40625 21.84375 63.234375 
Q 18.3125 60.0625 18.3125 54.390625 
z
" id="DejaVuSans-56"/>
      </defs>
      <g transform="translate(24.734375 73.308518)scale(0.1 -0.1)">
       <use xlink:href="#DejaVuSans-48"/>
       <use x="63.623047" xlink:href="#DejaVuSans-46"/>
       <use x="95.410156" xlink:href="#DejaVuSans-48"/>
       <use x="159.033203" xlink:href="#DejaVuSans-56"/>
      </g>
     </g>
    </g>
    <g id="ytick_9">
     <g id="line2d_18">
      <g>
       <use style="stroke:#000000;stroke-width:0.8;" x="54" xlink:href="#m20ae848d15" y="43.647671"/>
      </g>
     </g>
     <g id="text_18">
      <!-- 0.10 -->
      <g transform="translate(24.734375 47.44689)scale(0.1 -0.1)">
       <use xlink:href="#DejaVuSans-48"/>
       <use x="63.623047" xlink:href="#DejaVuSans-46"/>
       <use x="95.410156" xlink:href="#DejaVuSans-49"/>
       <use x="159.033203" xlink:href="#DejaVuSans-48"/>
      </g>
     </g>
    </g>
   </g>
   <g id="patch_3">
    <path d="M 54 252 
L 54 34.56 
" style="fill:none;stroke:#000000;stroke-linecap:square;stroke-linejoin:miter;stroke-width:0.8;"/>
   </g>
   <g id="patch_4">
    <path d="M 388.8 252 
L 388.8 34.56 
" style="fill:none;stroke:#000000;stroke-linecap:square;stroke-linejoin:miter;stroke-width:0.8;"/>
   </g>
   <g id="patch_5">
    <path d="M 54 252 
L 388.8 252 
" style="fill:none;stroke:#000000;stroke-linecap:square;stroke-linejoin:miter;stroke-width:0.8;"/>
   </g>
   <g id="patch_6">
    <path d="M 54 34.56 
L 388.8 34.56 
" style="fill:none;stroke:#000000;stroke-linecap:square;stroke-linejoin:miter;stroke-width:0.8;"/>
   </g>
  </g>
 </g>
 <defs>
  <clipPath id="p835025c086">
   <rect height="217.44" width="334.8" x="54" y="34.56"/>
  </clipPath>
 </defs>
</svg>
